<svg width="594" height="587" viewBox="0 0 594 587" fill="none" xmlns="http://www.w3.org/2000/svg">
<circle cx="297.437" cy="317.559" r="241.449" fill="#1D679C"/>
<path d="M245.176 317.543L352.721 318.096L356.989 418.6C356.989 418.6 312.515 420.982 296.888 420.945C280.546 420.901 241.389 418.389 241.389 418.389L245.176 317.543Z" fill="white"/>
<path d="M238.433 180.039L355.3 180.789L380.636 284.009H215.851L238.433 180.039Z" fill="white"/>
<path d="M199.212 462.708C185.922 462.708 179.735 454.368 179.735 444.683C179.735 434.407 187.482 426.013 199.104 426.013C206.476 426.013 210.188 428.65 212.717 430.64L209.758 436.613C206.906 434.191 203.57 432.685 199.427 432.685C192.056 432.685 187.644 438.012 187.644 444.63C187.644 451.14 192.056 456.036 199.75 456.036C205.131 456.036 208.628 453.292 210.941 451.248L213.901 456.736C211.964 458.888 207.068 462.708 199.212 462.708ZM236.25 426.013C247.173 426.013 255.513 433.869 255.513 444.145C255.513 454.799 247.765 462.708 236.25 462.708C225.22 462.708 216.988 455.337 216.988 444.145C216.988 433.869 225.274 426.013 236.25 426.013ZM236.25 432.846C229.848 432.846 224.951 437.42 224.951 444.199C224.951 451.678 229.848 455.875 236.25 455.875C242.653 455.875 247.55 451.678 247.55 444.199C247.55 437.42 242.707 432.846 236.25 432.846ZM278.338 426.013C289.261 426.013 297.6 433.869 297.6 444.145C297.6 454.799 289.852 462.708 278.338 462.708C267.308 462.708 259.076 455.337 259.076 444.145C259.076 433.869 267.362 426.013 278.338 426.013ZM278.338 432.846C271.935 432.846 267.039 437.42 267.039 444.199C267.039 451.678 271.935 455.875 278.338 455.875C284.741 455.875 289.637 451.678 289.637 444.199C289.637 437.42 284.795 432.846 278.338 432.846ZM303.639 426.659H316.552C327.098 426.659 331.833 431.824 331.833 438.926C331.833 446.782 326.99 451.248 317.574 451.248H311.171V462.062H303.639V426.659ZM311.171 445.275H316.929C322.202 445.275 324.354 443.123 324.354 439.088C324.354 436.29 323.278 433.223 316.444 433.223H311.171V445.275ZM362.111 446.889H345.378V455.498H365.339V462.062H337.845V426.659H364.371V433.277H345.378V441.079H362.111V446.889ZM371.105 462.062V426.659H384.61C394.403 426.659 398.761 431.501 398.761 438.119C398.761 442.101 397.093 445.867 393.058 447.804V447.966L401.774 462.062H393.327L385.256 449.257H378.638V462.062H371.105ZM378.638 443.554H384.072C389.13 443.554 391.282 441.993 391.282 438.281C391.282 435.268 389.776 433.115 384.503 433.115H378.638V443.554Z" fill="white"/>
<path d="M377.663 283.996C362.741 317.233 325.288 333.319 297.105 331.754C270.598 330.283 237.856 319.061 218.427 283.996" fill="white"/>
<path d="M377.663 283.996C362.741 317.233 325.288 333.319 297.105 331.754C270.598 330.283 237.856 319.061 218.427 283.996" stroke="#1D679C" stroke-width="4.36941" stroke-miterlimit="10"/>
<path d="M233.51 207.802L216.149 295.503C215.304 301.234 210.177 305.494 204.126 305.494C197.775 305.494 192.547 300.717 192.248 294.644C192.022 289.961 190.384 285.446 187.529 281.637L178.273 269.286C167.991 255.566 168.704 236.931 180.006 223.968L211.954 187.331C213.556 185.496 216.134 183.894 218.96 182.546C226.053 179.175 233.969 177.689 241.892 177.856L243.035 177.878" fill="white"/>
<path d="M233.51 207.802L216.149 295.503C215.304 301.234 210.177 305.494 204.126 305.494C197.775 305.494 192.547 300.717 192.248 294.644C192.022 289.961 190.384 285.446 187.529 281.637L178.273 269.286C167.991 255.566 168.704 236.931 180.006 223.968L211.954 187.331C213.556 185.496 216.134 183.894 218.96 182.546C226.053 179.175 233.969 177.689 241.892 177.856L243.035 177.878" stroke="#1D679C" stroke-width="4.36941" stroke-miterlimit="10" stroke-linecap="round"/>
<path d="M362.246 207.802L379.607 295.503C380.452 301.234 385.579 305.494 391.63 305.494C397.981 305.494 403.209 300.717 403.508 294.644C403.734 289.961 405.372 285.446 408.227 281.637L417.483 269.286C427.765 255.566 427.052 236.931 415.75 223.968L383.802 187.331C382.2 185.496 379.622 183.894 376.796 182.546C369.703 179.175 361.787 177.689 353.864 177.856L352.721 177.878" fill="white"/>
<path d="M362.246 207.802L379.607 295.503C380.452 301.234 385.579 305.494 391.63 305.494C397.981 305.494 403.209 300.717 403.508 294.644C403.734 289.961 405.372 285.446 408.227 281.637L417.483 269.286C427.765 255.566 427.052 236.931 415.75 223.968L383.802 187.331C382.2 185.496 379.622 183.894 376.796 182.546C369.703 179.175 361.787 177.689 353.864 177.856L352.721 177.878" stroke="#1D679C" stroke-width="4.36941" stroke-miterlimit="10" stroke-linecap="round"/>
<path d="M311.437 262.786C311.437 268.043 306.193 275.413 298.052 275.413C289.91 275.413 285.053 268.043 285.053 262.786C285.053 257.528 289.91 253.078 298.052 253.078C306.193 253.078 311.437 257.528 311.437 262.786Z" fill="#1D679C"/>
<path d="M270.942 279.207C269.784 287.065 276.593 288.558 278.683 288.754C284.029 289.264 287.546 284.632 299.241 285.04C304.689 285.23 310.514 288.747 317.069 288.543C320.44 288.434 327.643 285.637 326.798 280.081" stroke="#1D679C" stroke-width="4.36941" stroke-miterlimit="10" stroke-linecap="round"/>
<path d="M297.937 274.473V285.673" stroke="#1D679C" stroke-width="4.36941" stroke-miterlimit="10"/>
<path d="M350.15 237.366C350.602 242.551 342.576 251.829 335.512 251.683C328.645 251.537 323.074 246.112 323.074 239.237C323.074 232.363 329.847 226.697 336.619 227.833C342.853 228.86 349.764 232.945 350.15 237.366Z" fill="#1D679C"/>
<path d="M245.708 237.78C245.256 242.965 253.339 252.243 260.345 252.097C267.212 251.951 272.783 246.526 272.783 239.651C272.783 232.777 266.011 227.111 259.238 228.247C253.012 229.281 246.094 233.367 245.708 237.78Z" fill="#1D679C"/>
<path d="M261.816 239.648C263.55 239.648 264.955 238.243 264.955 236.51C264.955 234.776 263.55 233.371 261.816 233.371C260.083 233.371 258.678 234.776 258.678 236.51C258.678 238.243 260.083 239.648 261.816 239.648Z" fill="white"/>
<path d="M333.643 239.094C335.376 239.094 336.781 237.689 336.781 235.955C336.781 234.222 335.376 232.816 333.643 232.816C331.909 232.816 330.504 234.222 330.504 235.955C330.504 237.689 331.909 239.094 333.643 239.094Z" fill="white"/>
<path d="M287.946 334.352L292.454 344.591H301.186L305.824 334.352H287.946Z" fill="#1D679C"/>
<path d="M297.966 347.094H299.095C300.792 347.094 302.256 348.288 302.598 349.956L312.932 400.794C313.216 402.199 312.633 403.641 311.453 404.45L300.712 411.812C299.474 412.657 297.843 412.642 296.626 411.776L285.827 404.107C284.676 403.292 284.115 401.879 284.392 400.495L294.471 349.97C294.791 348.295 296.262 347.094 297.966 347.094Z" fill="#1D679C"/>
<path d="M245.176 315.883C242.751 319.48 184.565 378.569 206.747 404.4C208.808 406.803 213.075 409.381 214.029 410.015C228.332 419.445 240.311 420.232 253.9 420.829C267.591 421.433 270.824 419.394 272.63 417.705C276.351 414.216 277.859 408.558 276.956 403.759C275.776 397.518 270.78 394.146 265.428 390.542C261.357 387.789 253.871 383.623 242.853 382.13" fill="white"/>
<path d="M245.176 315.883C242.751 319.48 184.565 378.569 206.747 404.4C208.808 406.803 213.075 409.381 214.029 410.015C228.332 419.445 240.311 420.232 253.9 420.829C267.591 421.433 270.824 419.394 272.63 417.705C276.351 414.216 277.859 408.558 276.956 403.759C275.776 397.518 270.78 394.146 265.428 390.542C261.357 387.789 253.871 383.623 242.853 382.13" stroke="#1D679C" stroke-width="4.36941" stroke-miterlimit="10" stroke-linecap="round"/>
<path d="M352.35 314.789C354.775 318.387 410.995 378.568 388.813 404.398C386.752 406.802 382.484 409.38 381.53 410.013C367.228 419.444 357.156 420.23 343.575 420.827C329.884 421.432 326.65 419.393 324.844 417.703C321.123 414.215 319.616 408.557 320.519 403.758C321.698 397.517 326.694 394.145 332.047 390.54C336.117 387.787 343.604 383.622 354.622 382.129" fill="white"/>
<path d="M352.35 314.789C354.775 318.387 410.995 378.568 388.813 404.398C386.752 406.802 382.484 409.38 381.53 410.013C367.228 419.444 357.156 420.23 343.575 420.827C329.884 421.432 326.65 419.393 324.844 417.703C321.123 414.215 319.616 408.557 320.519 403.758C321.698 397.517 326.694 394.145 332.047 390.54C336.117 387.787 343.604 383.622 354.622 382.129" stroke="#1D679C" stroke-width="4.36941" stroke-miterlimit="10" stroke-linecap="round"/>
<path d="M352.547 324.979C352.54 327.455 351.339 329.786 349.299 331.184C332.39 342.77 311.956 348.006 294.966 346.856C280.365 345.865 263.907 341.896 248.898 332.619C246.677 331.25 245.351 328.803 245.358 326.188L245.366 321.702C245.373 318.826 248.49 317.064 250.98 318.513C265.429 326.909 281.057 330.572 294.995 331.519C311.271 332.619 330.708 327.863 347.18 317.275C349.511 315.775 352.569 317.42 352.562 320.188L352.547 324.979Z" fill="white" stroke="#1D679C" stroke-width="3.64118" stroke-miterlimit="10"/>
<path d="M290.284 335.303L292.927 341.311C293.32 342.207 294.202 342.782 295.177 342.782H301.309C302.278 342.782 303.152 342.214 303.552 341.34L306.276 335.333C307.011 333.701 305.824 331.852 304.033 331.852H292.534C290.757 331.852 289.563 333.679 290.284 335.303Z" fill="#1D679C"/>
<path d="M240.442 181.862C256.871 168.389 276.818 160 298.315 160C318.939 160 337.96 167.858 353.77 180.551" fill="white"/>
<path d="M240.442 181.862C256.871 168.389 276.818 160 298.315 160C318.939 160 337.96 167.858 353.77 180.551" stroke="#1D679C" stroke-width="2.91294" stroke-miterlimit="10" stroke-linecap="round"/>
</svg>
