<svg fill="none" xmlns="http://www.w3.org/2000/svg" viewBox="65.89 64.53 135.31 148.1">
<path d="M109.916 142.359L158.131 142.607L160.044 187.665C160.044 187.665 140.106 188.732 133.1 188.716C125.773 188.696 108.219 187.57 108.219 187.57L109.916 142.359Z" fill="white"/>
<path d="M106.893 80.7109L159.286 81.0472L170.644 127.322H96.7686L106.893 80.7109Z" fill="white"/>
<path d="M89.3092 212.61C83.3512 212.61 80.5773 208.871 80.5773 204.529C80.5773 199.922 84.0507 196.159 89.261 196.159C92.5656 196.159 94.23 197.341 95.3637 198.233L94.037 200.911C92.7586 199.825 91.2631 199.15 89.4057 199.15C86.1011 199.15 84.1231 201.538 84.1231 204.505C84.1231 207.424 86.1011 209.619 89.5504 209.619C91.9626 209.619 93.5305 208.389 94.5677 207.472L95.8944 209.932C95.026 210.897 92.831 212.61 89.3092 212.61ZM105.914 196.159C110.811 196.159 114.55 199.681 114.55 204.288C114.55 209.064 111.076 212.61 105.914 212.61C100.969 212.61 97.2785 209.305 97.2785 204.288C97.2785 199.681 100.993 196.159 105.914 196.159ZM105.914 199.222C103.044 199.222 100.849 201.273 100.849 204.312C100.849 207.665 103.044 209.546 105.914 209.546C108.784 209.546 110.98 207.665 110.98 204.312C110.98 201.273 108.809 199.222 105.914 199.222ZM124.782 196.159C129.679 196.159 133.418 199.681 133.418 204.288C133.418 209.064 129.944 212.61 124.782 212.61C119.838 212.61 116.147 209.305 116.147 204.288C116.147 199.681 119.862 196.159 124.782 196.159ZM124.782 199.222C121.912 199.222 119.717 201.273 119.717 204.312C119.717 207.665 121.912 209.546 124.782 209.546C127.653 209.546 129.848 207.665 129.848 204.312C129.848 201.273 127.677 199.222 124.782 199.222ZM136.125 196.448H141.914C146.642 196.448 148.765 198.764 148.765 201.948C148.765 205.47 146.594 207.472 142.372 207.472H139.502V212.32H136.125V196.448ZM139.502 204.794H142.083C144.447 204.794 145.412 203.83 145.412 202.02C145.412 200.766 144.929 199.391 141.866 199.391H139.502V204.794ZM162.339 205.518H154.837V209.377H163.786V212.32H151.46V196.448H163.352V199.415H154.837V202.913H162.339V205.518ZM166.371 212.32V196.448H172.426C176.816 196.448 178.77 198.619 178.77 201.586C178.77 203.371 178.022 205.06 176.213 205.928V206L180.12 212.32H176.333L172.715 206.579H169.748V212.32H166.371ZM169.748 204.023H172.184C174.452 204.023 175.417 203.323 175.417 201.659C175.417 200.308 174.741 199.343 172.377 199.343H169.748V204.023Z" fill="white"/>
<path d="M169.311 127.32C162.622 142.221 145.831 149.433 133.196 148.731C121.313 148.071 106.634 143.04 97.9238 127.32" fill="white"/>
<path d="M169.311 127.32C162.622 142.221 145.831 149.433 133.196 148.731C121.313 148.071 106.634 143.04 97.9238 127.32" stroke="#1D679C" stroke-width="1.95886" stroke-miterlimit="10"/>
<path d="M104.685 93.157L96.9019 132.475C96.5232 135.044 94.2248 136.954 91.5118 136.954C88.6649 136.954 86.3208 134.812 86.1869 132.089C86.0857 129.99 85.3512 127.966 84.0714 126.258L79.9219 120.721C75.312 114.571 75.632 106.216 80.6989 100.405L95.0214 83.9797C95.7397 83.157 96.8954 82.4388 98.1621 81.8348C101.342 80.3232 104.891 79.6572 108.443 79.7323L108.955 79.742" fill="white"/>
<path d="M104.685 93.157L96.9019 132.475C96.5232 135.044 94.2248 136.954 91.5118 136.954C88.6649 136.954 86.3208 134.812 86.1869 132.089C86.0857 129.99 85.3512 127.966 84.0714 126.258L79.9219 120.721C75.312 114.571 75.632 106.216 80.6989 100.405L95.0214 83.9797C95.7397 83.157 96.8954 82.4387 98.1621 81.8348C101.342 80.3232 104.891 79.6572 108.443 79.7323L108.955 79.742" stroke="#1D679C" stroke-width="1.95886" stroke-miterlimit="10" stroke-linecap="round"/>
<path d="M162.399 93.157L170.182 132.475C170.561 135.044 172.86 136.954 175.573 136.954C178.419 136.954 180.764 134.812 180.897 132.089C180.999 129.99 181.733 127.966 183.013 126.258L187.163 120.721C191.772 114.571 191.452 106.216 186.385 100.405L172.063 83.9797C171.345 83.157 170.189 82.4388 168.922 81.8348C165.742 80.3232 162.194 79.6572 158.641 79.7323L158.129 79.742" fill="white"/>
<path d="M162.399 93.157L170.182 132.475C170.561 135.044 172.86 136.954 175.573 136.954C178.419 136.954 180.764 134.812 180.897 132.089C180.999 129.99 181.733 127.966 183.013 126.258L187.163 120.721C191.772 114.571 191.452 106.216 186.385 100.405L172.063 83.9797C171.345 83.157 170.189 82.4387 168.922 81.8348C165.742 80.3232 162.194 79.6572 158.641 79.7323L158.129 79.742" stroke="#1D679C" stroke-width="1.95886" stroke-miterlimit="10" stroke-linecap="round"/>
<path d="M139.621 117.805C139.621 120.162 137.271 123.466 133.621 123.466C129.971 123.466 127.793 120.162 127.793 117.805C127.793 115.448 129.971 113.453 133.621 113.453C137.271 113.453 139.621 115.448 139.621 117.805Z" fill="#1D679C"/>
<path d="M121.467 125.172C120.948 128.695 124.001 129.364 124.938 129.452C127.334 129.681 128.911 127.604 134.154 127.787C136.596 127.872 139.208 129.449 142.146 129.357C143.658 129.308 146.887 128.055 146.508 125.564" stroke="#1D679C" stroke-width="1.95886" stroke-miterlimit="10" stroke-linecap="round"/>
<path d="M133.568 123.047V128.068" stroke="#1D679C" stroke-width="1.95886" stroke-miterlimit="10"/>
<path d="M156.976 106.417C157.179 108.742 153.581 112.901 150.414 112.836C147.335 112.77 144.838 110.338 144.838 107.256C144.838 104.174 147.874 101.634 150.91 102.143C153.705 102.604 156.803 104.435 156.976 106.417Z" fill="#1D679C"/>
<path d="M110.153 106.597C109.95 108.921 113.574 113.081 116.715 113.015C119.794 112.95 122.291 110.518 122.291 107.436C122.291 104.354 119.255 101.814 116.219 102.323C113.427 102.787 110.326 104.618 110.153 106.597Z" fill="#1D679C"/>
<path d="M117.376 107.431C118.153 107.431 118.783 106.801 118.783 106.024C118.783 105.247 118.153 104.617 117.376 104.617C116.599 104.617 115.969 105.247 115.969 106.024C115.969 106.801 116.599 107.431 117.376 107.431Z" fill="white"/>
<path d="M149.576 107.189C150.353 107.189 150.983 106.559 150.983 105.782C150.983 105.005 150.353 104.375 149.576 104.375C148.799 104.375 148.169 105.005 148.169 105.782C148.169 106.559 148.799 107.189 149.576 107.189Z" fill="white"/>
<path d="M129.09 149.891L131.111 154.481H135.025L137.105 149.891H129.09Z" fill="#1D679C"/>
<path d="M133.582 155.609H134.088C134.848 155.609 135.505 156.145 135.658 156.892L140.291 179.684C140.418 180.314 140.157 180.96 139.628 181.323L134.812 184.623C134.257 185.002 133.526 184.996 132.981 184.607L128.139 181.169C127.623 180.804 127.372 180.17 127.496 179.55L132.015 156.899C132.158 156.148 132.818 155.609 133.582 155.609Z" fill="#1D679C"/>
<path d="M109.916 141.609C108.829 143.222 82.7434 169.713 92.6879 181.293C93.6118 182.37 95.525 183.526 95.9526 183.81C102.365 188.038 107.735 188.39 113.827 188.658C119.965 188.929 121.415 188.015 122.224 187.257C123.893 185.694 124.568 183.157 124.164 181.005C123.635 178.207 121.395 176.696 118.995 175.08C117.17 173.846 113.814 171.978 108.875 171.309" fill="white"/>
<path d="M109.916 141.609C108.829 143.222 82.7434 169.713 92.6879 181.293C93.6118 182.37 95.525 183.526 95.9526 183.81C102.365 188.038 107.735 188.39 113.827 188.658C119.965 188.929 121.415 188.015 122.224 187.257C123.893 185.694 124.568 183.157 124.164 181.005C123.635 178.207 121.395 176.696 118.995 175.08C117.17 173.846 113.814 171.978 108.875 171.309" stroke="#1D679C" stroke-width="1.95886" stroke-miterlimit="10" stroke-linecap="round"/>
<path d="M157.963 141.125C159.05 142.738 184.254 169.718 174.309 181.298C173.386 182.375 171.472 183.531 171.045 183.815C164.633 188.043 160.118 188.396 154.029 188.663C147.891 188.934 146.441 188.02 145.632 187.263C143.963 185.699 143.288 183.162 143.692 181.011C144.221 178.213 146.461 176.701 148.861 175.085C150.686 173.851 154.042 171.984 158.981 171.314" fill="white"/>
<path d="M157.963 141.125C159.05 142.738 184.254 169.718 174.309 181.298C173.386 182.375 171.472 183.531 171.045 183.815C164.633 188.043 160.118 188.396 154.029 188.663C147.891 188.934 146.441 188.02 145.632 187.263C143.963 185.699 143.288 183.162 143.692 181.011C144.221 178.213 146.461 176.701 148.861 175.085C150.686 173.851 154.042 171.984 158.981 171.314" stroke="#1D679C" stroke-width="1.95886" stroke-miterlimit="10" stroke-linecap="round"/>
<path d="M158.05 145.693C158.047 146.803 157.508 147.848 156.594 148.475C149.013 153.669 139.852 156.016 132.236 155.5C125.69 155.056 118.311 153.277 111.583 149.118C110.587 148.504 109.993 147.407 109.996 146.235L109.999 144.224C110.003 142.934 111.4 142.144 112.517 142.794C118.994 146.558 126 148.2 132.249 148.625C139.546 149.118 148.259 146.986 155.644 142.239C156.689 141.566 158.06 142.304 158.057 143.545L158.05 145.693Z" fill="white" stroke="#1D679C" stroke-width="1.63238" stroke-miterlimit="10"/>
<path d="M130.139 150.321L131.324 153.014C131.5 153.416 131.895 153.674 132.333 153.674H135.082C135.516 153.674 135.908 153.419 136.087 153.027L137.308 150.334C137.638 149.603 137.106 148.773 136.303 148.773H131.147C130.351 148.773 129.815 149.593 130.139 150.321Z" fill="#1D679C"/>
<path d="M107.793 81.5352C115.158 75.4954 124.1 71.7344 133.738 71.7344C142.984 71.7344 151.512 75.2571 158.599 80.9475" fill="white"/>
<path d="M107.793 81.5352C115.158 75.4954 124.1 71.7344 133.738 71.7344C142.984 71.7344 151.512 75.2571 158.599 80.9475" stroke="#1D679C" stroke-width="1.30591" stroke-miterlimit="10" stroke-linecap="round"/>
</svg>