<svg xmlns="http://www.w3.org/2000/svg" width="100" height="100" viewBox="45 15 75 75" fill="none">
  <path d="M68.7831 60.085L98.9538 60.2402L100.151 88.4354C100.151 88.4354 87.6745 89.1035 83.2903 89.0933C78.7058 89.081 67.7207 88.3762 67.7207 88.3762L68.7831 60.085Z" fill="white"/>
  <path d="M66.888 21.5073L99.6738 21.7178L106.781 50.675H60.5527L66.888 21.5073Z" fill="white"/>
  <path d="M105.951 50.6719C101.765 59.996 91.258 64.509 83.3517 64.0697C75.9152 63.6571 66.73 60.5088 61.2793 50.6719" fill="white"/>
  <path d="M105.951 50.6719C101.765 59.996 91.258 64.509 83.3517 64.0697C75.9152 63.6571 66.73 60.5088 61.2793 50.6719" stroke="#5E8BAB" stroke-width="1.22579" stroke-miterlimit="10"/>
  <path d="M65.5095 29.2964L60.639 53.9C60.402 55.5079 58.9638 56.703 57.2661 56.703C55.4846 56.703 54.0177 55.3628 53.9339 53.659C53.8706 52.3453 53.411 51.0787 52.6101 50.0102L50.0135 46.5453C47.1288 42.6963 47.329 37.4683 50.4997 33.8318L59.4623 23.5536C59.9117 23.0387 60.6349 22.5893 61.4276 22.2113C63.4175 21.2654 65.6382 20.8487 67.861 20.8957L68.1817 20.9018" fill="white"/>
  <path d="M65.5095 29.2964L60.639 53.9C60.402 55.5079 58.9638 56.703 57.2661 56.703C55.4846 56.703 54.0177 55.3628 53.9339 53.659C53.8706 52.3453 53.411 51.0787 52.6101 50.0102L50.0135 46.5453C47.1288 42.6963 47.329 37.4683 50.4997 33.8318L59.4623 23.5536C59.9117 23.0387 60.6349 22.5893 61.4276 22.2113C63.4175 21.2654 65.6382 20.8487 67.861 20.8957L68.1817 20.9018" stroke="#5E8BAB" stroke-width="1.22579" stroke-miterlimit="10" stroke-linecap="round"/>
  <path d="M101.625 29.2964L106.496 53.9C106.733 55.5079 108.171 56.703 109.869 56.703C111.65 56.703 113.117 55.3628 113.201 53.659C113.264 52.3453 113.724 51.0787 114.525 50.0102L117.121 46.5453C120.006 42.6963 119.806 37.4683 116.635 33.8318L107.673 23.5536C107.223 23.0387 106.5 22.5893 105.707 22.2113C103.717 21.2654 101.497 20.8487 99.2739 20.8957L98.9531 20.9018" fill="white"/>
  <path d="M101.625 29.2964L106.496 53.9C106.733 55.5079 108.171 56.703 109.869 56.703C111.65 56.703 113.117 55.3628 113.201 53.659C113.264 52.3453 113.724 51.0787 114.525 50.0102L117.121 46.5453C120.006 42.6963 119.806 37.4683 116.635 33.8318L107.673 23.5536C107.223 23.0387 106.5 22.5893 105.707 22.2113C103.717 21.2654 101.497 20.8487 99.2739 20.8957L98.9531 20.9018" stroke="#5E8BAB" stroke-width="1.22579" stroke-miterlimit="10" stroke-linecap="round"/>
  <path d="M87.3724 44.7184C87.3724 46.1934 85.9015 48.2609 83.6174 48.2609C81.3334 48.2609 79.9707 46.1934 79.9707 44.7184C79.9707 43.2434 81.3334 41.9951 83.6174 41.9951C85.9015 41.9951 87.3724 43.2434 87.3724 44.7184Z" fill="#5E8BAB"/>
  <path d="M76.0096 49.3281C75.6847 51.5325 77.5949 51.9513 78.1813 52.0065C79.6808 52.1495 80.6676 50.8501 83.9486 50.9646C85.4767 51.0177 87.1111 52.0044 88.9498 51.9472C89.8957 51.9166 91.9162 51.1321 91.6792 49.5733" stroke="#5E8BAB" stroke-width="1.22579" stroke-miterlimit="10" stroke-linecap="round"/>
  <path d="M83.584 48V51.1421" stroke="#5E8BAB" stroke-width="1.22579" stroke-miterlimit="10"/>
  <path d="M98.2306 37.5902C98.3572 39.0448 96.1059 41.6475 94.1242 41.6067C92.1976 41.5658 90.6348 40.0438 90.6348 38.1152C90.6348 36.1866 92.5347 34.5972 94.4347 34.9159C96.1835 35.2039 98.1223 36.3501 98.2306 37.5902Z" fill="#5E8BAB"/>
  <path d="M68.9309 37.7073C68.8042 39.1619 71.0719 41.7647 73.0373 41.7238C74.9638 41.683 76.5267 40.161 76.5267 38.2324C76.5267 36.3038 74.6267 34.7144 72.7267 35.0331C70.98 35.3232 69.0391 36.4693 68.9309 37.7073Z" fill="#5E8BAB"/>
  <path d="M73.4489 38.2327C73.9352 38.2327 74.3294 37.8385 74.3294 37.3522C74.3294 36.8659 73.9352 36.4717 73.4489 36.4717C72.9626 36.4717 72.5684 36.8659 72.5684 37.3522C72.5684 37.8385 72.9626 38.2327 73.4489 38.2327Z" fill="white"/>
  <path d="M93.6012 38.0726C94.0875 38.0726 94.4818 37.6783 94.4818 37.192C94.4818 36.7057 94.0875 36.3115 93.6012 36.3115C93.1149 36.3115 92.7207 36.7057 92.7207 37.192C92.7207 37.6783 93.1149 38.0726 93.6012 38.0726Z" fill="white"/>
  <path d="M80.7793 64.8018L82.0439 67.6742H84.4934L85.7948 64.8018H80.7793Z" fill="#5E8BAB"/>
  <path d="M83.5914 68.376H83.908C84.384 68.376 84.7947 68.711 84.8907 69.1789L87.7897 83.4409C87.8694 83.8352 87.7059 84.2397 87.375 84.4665L84.3616 86.532C84.0143 86.7689 83.5566 86.7649 83.2155 86.5217L80.1857 84.3705C79.8629 84.1417 79.7056 83.7453 79.7832 83.3572L82.6107 69.183C82.7006 68.7131 83.1133 68.376 83.5914 68.376Z" fill="#5E8BAB"/>
  <path d="M68.7825 59.6162C68.1022 60.6254 51.7788 77.2022 58.0017 84.4487C58.5799 85.1228 59.7771 85.8461 60.0447 86.0238C64.0571 88.6695 67.4178 88.8901 71.23 89.0576C75.0708 89.2272 75.9779 88.6552 76.4846 88.1812C77.5285 87.2026 77.9514 85.6152 77.6981 84.2689C77.3671 82.518 75.9657 81.5721 74.4641 80.5609C73.322 79.7886 71.2219 78.62 68.1308 78.2012" fill="white"/>
  <path d="M68.7825 59.6162C68.1022 60.6254 51.7788 77.2022 58.0017 84.4487C58.5799 85.1228 59.7771 85.8461 60.0447 86.0238C64.0571 88.6695 67.4178 88.8901 71.23 89.0576C75.0708 89.2272 75.9779 88.6552 76.4846 88.1812C77.5285 87.2026 77.9514 85.6152 77.6981 84.2689C77.3671 82.518 75.9657 81.5721 74.4641 80.5609C73.322 79.7886 71.2219 78.62 68.1308 78.2012" stroke="#5E8BAB" stroke-width="1.22579" stroke-miterlimit="10" stroke-linecap="round"/>
  <path d="M98.8471 59.3086C99.5274 60.3178 115.299 77.201 109.076 84.4475C108.498 85.1217 107.301 85.8449 107.033 86.0226C103.021 88.6683 100.195 88.8889 96.3853 89.0565C92.5445 89.226 91.6374 88.654 91.1308 88.18C90.0868 87.2014 89.6639 85.614 89.9172 84.2677C90.2482 82.5169 91.6497 81.571 93.1513 80.5597C94.2933 79.7874 96.3935 78.6189 99.4845 78.2" fill="white"/>
  <path d="M98.8471 59.3086C99.5274 60.3178 115.299 77.201 109.076 84.4475C108.498 85.1217 107.301 85.8449 107.033 86.0226C103.021 88.6683 100.195 88.8889 96.3853 89.0565C92.5445 89.226 91.6374 88.654 91.1308 88.18C90.0868 87.2014 89.6639 85.614 89.9172 84.2677C90.2482 82.5169 91.6497 81.571 93.1513 80.5597C94.2933 79.7874 96.3935 78.6189 99.4845 78.2" stroke="#5E8BAB" stroke-width="1.22579" stroke-miterlimit="10" stroke-linecap="round"/>
  <path d="M98.9046 62.1713C98.9026 62.8659 98.5655 63.5197 97.9935 63.9119C93.2497 67.1623 87.5171 68.6312 82.7508 68.3084C78.6546 68.0306 74.0375 66.9172 69.8269 64.3144C69.2038 63.9303 68.8319 63.2439 68.834 62.5105L68.836 61.252C68.8381 60.445 69.7125 59.9506 70.4112 60.3572C74.4645 62.7127 78.8487 63.7403 82.759 64.0059C87.325 64.3144 92.7777 62.9803 97.399 60.0098C98.0527 59.589 98.9108 60.0507 98.9087 60.827L98.9046 62.1713Z" fill="white" stroke="#5E8BAB" stroke-width="1.02149" stroke-miterlimit="10"/>
  <path d="M81.4368 65.067L82.1784 66.7525C82.2888 67.0038 82.536 67.1651 82.8097 67.1651H84.5299C84.8016 67.1651 85.0468 67.0058 85.1591 66.7606L85.9232 65.0752C86.1296 64.6175 85.7966 64.0986 85.294 64.0986H82.0681C81.5696 64.0986 81.2346 64.6114 81.4368 65.067Z" fill="#5E8BAB"/>
  <path d="M67.4531 22.0183C72.0621 18.2388 77.6578 15.8853 83.6887 15.8853C89.4744 15.8853 94.8107 18.0896 99.246 21.6505" fill="white"/>
  <path d="M67.4531 22.0183C72.0621 18.2388 77.6578 15.8853 83.6887 15.8853C89.4744 15.8853 94.8107 18.0896 99.246 21.6505" stroke="#5E8BAB" stroke-width="0.817193" stroke-miterlimit="10" stroke-linecap="round"/>
</svg>