<svg xmlns="http://www.w3.org/2000/svg" width="110" height="94" viewBox="0 0 110 94" fill="none">
  <path d="M39.9024 44.458L59.8183 44.5599L60.6086 63.0624C60.6086 63.0624 52.3728 63.5008 49.4787 63.4941C46.4525 63.4861 39.2012 63.0235 39.2012 63.0235L39.9024 44.458Z" fill="white"/>
  <path d="M38.6546 19.145L60.2967 19.2831L64.9884 38.2857H34.4727L38.6546 19.145Z" fill="white"/>
  <path d="M64.4374 38.2832C61.6741 44.402 54.7384 47.3635 49.5193 47.0753C44.6105 46.8045 38.5472 44.7385 34.9492 38.2832" fill="white"/>
  <path d="M64.4374 38.2832C61.6741 44.402 54.7384 47.3635 49.5193 47.0753C44.6105 46.8045 38.5472 44.7385 34.9492 38.2832" stroke="#5E8BAB" stroke-width="1.2493" stroke-miterlimit="10"/>
  <path d="M37.7422 24.2559L34.5272 40.4015C34.3708 41.4566 33.4214 42.2409 32.3007 42.2409C31.1247 42.2409 30.1564 41.3614 30.1011 40.2433C30.0593 39.3813 29.7559 38.5501 29.2273 37.8489L27.5132 35.5751C25.609 33.0493 25.7412 29.6185 27.8342 27.2322L33.7504 20.4873C34.0471 20.1494 34.5245 19.8545 35.0478 19.6064C36.3613 18.9857 37.8272 18.7122 39.2944 18.7431L39.5062 18.7471" fill="white"/>
  <path d="M37.7422 24.2559L34.5272 40.4015C34.3708 41.4566 33.4214 42.2409 32.3007 42.2409C31.1247 42.2409 30.1564 41.3614 30.1011 40.2433C30.0593 39.3813 29.7559 38.5501 29.2273 37.8489L27.5132 35.5751C25.609 33.0493 25.7412 29.6185 27.8342 27.2322L33.7504 20.4873C34.0471 20.1494 34.5245 19.8545 35.0478 19.6064C36.3613 18.9857 37.8272 18.7122 39.2944 18.7431L39.5062 18.7471" stroke="#5E8BAB" stroke-width="1.2493" stroke-miterlimit="10" stroke-linecap="round"/>
  <path d="M61.5823 24.2559L64.7973 40.4015C64.9538 41.4566 65.9032 42.2409 67.0238 42.2409C68.1998 42.2409 69.1681 41.3614 69.2234 40.2433C69.2652 39.3813 69.5686 38.5501 70.0973 37.8489L71.8113 35.5751C73.7155 33.0493 73.5834 29.6185 71.4904 27.2322L65.5741 20.4873C65.2774 20.1494 64.8 19.8545 64.2768 19.6064C62.9633 18.9857 61.4973 18.7122 60.0301 18.7431L59.8184 18.7471" fill="white"/>
  <path d="M61.5823 24.2559L64.7973 40.4015C64.9538 41.4566 65.9032 42.2409 67.0238 42.2409C68.1998 42.2409 69.1681 41.3614 69.2234 40.2433C69.2652 39.3813 69.5686 38.5501 70.0973 37.8489L71.8113 35.5751C73.7155 33.0493 73.5834 29.6185 71.4904 27.2322L65.5741 20.4873C65.2774 20.1494 64.8 19.8545 64.2768 19.6064C62.9633 18.9857 61.4973 18.7122 60.0301 18.7431L59.8184 18.7471" stroke="#5E8BAB" stroke-width="1.2493" stroke-miterlimit="10" stroke-linecap="round"/>
  <path d="M52.173 34.3779C52.173 35.3459 51.2021 36.7026 49.6943 36.7026C48.1866 36.7026 47.2871 35.3459 47.2871 34.3779C47.2871 33.41 48.1866 32.5908 49.6943 32.5908C51.2021 32.5908 52.173 33.41 52.173 34.3779Z" fill="#5E8BAB"/>
  <path d="M44.6748 37.4014C44.4603 38.8479 45.7213 39.1228 46.1083 39.159C47.0982 39.2528 47.7495 38.4002 49.9154 38.4752C50.9241 38.5101 52.003 39.1576 53.2167 39.1201C53.8411 39.1 55.1748 38.5852 55.0184 37.5622" stroke="#5E8BAB" stroke-width="1.2493" stroke-miterlimit="10" stroke-linecap="round"/>
  <path d="M49.6738 36.5303V38.5922" stroke="#5E8BAB" stroke-width="1.2493" stroke-miterlimit="10"/>
  <path d="M59.3422 29.6988C59.4258 30.6533 57.9396 32.3613 56.6315 32.3345C55.3598 32.3077 54.3281 31.3089 54.3281 30.0433C54.3281 28.7777 55.5823 27.7347 56.8365 27.9438C57.9909 28.1329 59.2707 28.885 59.3422 29.6988Z" fill="#5E8BAB"/>
  <path d="M40.0014 29.7749C39.9178 30.7295 41.4147 32.4375 42.7121 32.4107C43.9838 32.3839 45.0154 31.3851 45.0154 30.1195C45.0154 28.8539 43.7613 27.8109 42.5071 28.02C41.354 28.2104 40.0729 28.9625 40.0014 29.7749Z" fill="#5E8BAB"/>
  <path d="M42.9836 30.1185C43.3046 30.1185 43.5648 29.8598 43.5648 29.5407C43.5648 29.2216 43.3046 28.9629 42.9836 28.9629C42.6626 28.9629 42.4023 29.2216 42.4023 29.5407C42.4023 29.8598 42.6626 30.1185 42.9836 30.1185Z" fill="white"/>
  <path d="M56.2844 30.017C56.6054 30.017 56.8656 29.7583 56.8656 29.4392C56.8656 29.12 56.6054 28.8613 56.2844 28.8613C55.9634 28.8613 55.7031 29.12 55.7031 29.4392C55.7031 29.7583 55.9634 30.017 56.2844 30.017Z" fill="white"/>
  <path d="M47.8223 47.5537L48.657 49.4387H50.274L51.133 47.5537H47.8223Z" fill="#5E8BAB"/>
  <path d="M49.679 49.8984H49.8881C50.2023 49.8984 50.4733 50.1183 50.5367 50.4253L52.4504 59.7845C52.503 60.0433 52.3951 60.3087 52.1766 60.4575L50.1874 61.8129C49.9582 61.9684 49.6561 61.9658 49.4309 61.8062L47.4309 60.3945C47.2179 60.2444 47.114 59.9843 47.1653 59.7295L49.0317 50.428C49.091 50.1196 49.3635 49.8984 49.679 49.8984Z" fill="#5E8BAB"/>
  <path d="M39.902 44.1523C39.4529 44.8146 28.6777 55.6928 32.7855 60.4481C33.1672 60.8906 33.9574 61.3652 34.1341 61.4818C36.7827 63.2179 39.0011 63.3627 41.5176 63.4727C44.0529 63.5839 44.6517 63.2086 44.9861 62.8975C45.6753 62.2554 45.9544 61.2137 45.7872 60.3302C45.5687 59.1812 44.6436 58.5605 43.6524 57.8968C42.8985 57.3901 41.5122 56.6232 39.4718 56.3484" fill="white"/>
  <path d="M39.902 44.1523C39.4529 44.8146 28.6777 55.6928 32.7855 60.4481C33.1672 60.8906 33.9574 61.3651 34.1341 61.4818C36.7827 63.2179 39.0011 63.3627 41.5176 63.4727C44.0529 63.5839 44.6517 63.2086 44.9861 62.8975C45.6753 62.2554 45.9544 61.2137 45.7872 60.3302C45.5687 59.1812 44.6436 58.5605 43.6524 57.8968C42.8985 57.3901 41.5122 56.6232 39.4718 56.3484" stroke="#5E8BAB" stroke-width="1.2493" stroke-miterlimit="10" stroke-linecap="round"/>
  <path d="M59.7505 43.9521C60.1996 44.6144 70.6106 55.6937 66.5028 60.449C66.1212 60.8915 65.3309 61.3661 65.1543 61.4827C62.5056 63.2189 60.6406 63.3636 58.1254 63.4736C55.5901 63.5849 54.9913 63.2095 54.6569 62.8984C53.9678 62.2563 53.6886 61.2146 53.8558 60.3311C54.0743 59.1821 54.9994 58.5614 55.9906 57.8978C56.7445 57.391 58.1308 56.6241 60.1712 56.3493" fill="white"/>
  <path d="M59.7505 43.9521C60.1996 44.6144 70.6106 55.6937 66.5028 60.449C66.1212 60.8915 65.3309 61.3661 65.1543 61.4827C62.5056 63.2189 60.6406 63.3636 58.1254 63.4736C55.5901 63.5849 54.9913 63.2095 54.6569 62.8984C53.9678 62.2563 53.6886 61.2146 53.8558 60.3311C54.0743 59.1821 54.9994 58.5614 55.9906 57.8978C56.7445 57.391 58.1308 56.6241 60.1712 56.3493" stroke="#5E8BAB" stroke-width="1.2493" stroke-miterlimit="10" stroke-linecap="round"/>
  <path d="M59.7854 45.8286C59.784 46.2844 59.5615 46.7134 59.1839 46.9708C56.0525 49.1038 52.2684 50.0678 49.1221 49.856C46.4182 49.6736 43.3704 48.943 40.591 47.235C40.1796 46.9829 39.9342 46.5325 39.9356 46.0512L39.9369 45.2253C39.9382 44.6957 40.5154 44.3713 40.9767 44.6381C43.6523 46.1839 46.5463 46.8582 49.1275 47.0325C52.1416 47.235 55.741 46.3595 58.7915 44.4102C59.223 44.134 59.7894 44.437 59.7881 44.9464L59.7854 45.8286Z" fill="white" stroke="#5E8BAB" stroke-width="1.04108" stroke-miterlimit="10"/>
  <path d="M48.2563 47.7292L48.7459 48.8353C48.8187 49.0002 48.9819 49.1061 49.1626 49.1061H50.2981C50.4774 49.1061 50.6393 49.0015 50.7134 48.8406L51.2178 47.7346C51.354 47.4343 51.1342 47.0938 50.8024 47.0938H48.673C48.344 47.0938 48.1228 47.4303 48.2563 47.7292Z" fill="#5E8BAB"/>
  <path d="M39.0273 19.4802C42.0698 17 45.7635 15.4556 49.7445 15.4556C53.5637 15.4556 57.0862 16.9021 60.014 19.2389" fill="white"/>
  <path d="M39.0273 19.4802C42.0698 17 45.7635 15.4556 49.7445 15.4556C53.5637 15.4556 57.0862 16.9021 60.014 19.2389" stroke="#5E8BAB" stroke-width="0.832865" stroke-miterlimit="10" stroke-linecap="round"/>
</svg>