<svg width="105" height="105" viewBox="0 0 105 105" fill="none" xmlns="http://www.w3.org/2000/svg">
<g id="verified">
<mask id="mask0_746_2493" style="mask-type:alpha" maskUnits="userSpaceOnUse" x="0" y="0" width="105" height="105">
<rect id="Bounding box" width="104.396" height="104.396" fill="#436F8E"/>
</mask>
<g mask="url(#mask0_746_2493)">
<path id="verified_2" d="M37.4085 97.8704L29.1438 83.9508L13.4843 80.4709L15.0068 64.3765L4.34961 52.1969L15.0068 40.0173L13.4843 23.9229L29.1438 20.443L37.4085 6.52344L52.198 12.8307L66.9875 6.52344L75.2522 20.443L90.9117 23.9229L89.3893 40.0173L100.046 52.1969L89.3893 64.3765L90.9117 80.4709L75.2522 83.9508L66.9875 97.8704L52.198 91.5631L37.4085 97.8704ZM41.1059 86.7782L52.198 81.9934L63.5076 86.7782L69.5974 76.3386L81.5595 73.5112L80.472 61.3316L88.5193 52.1969L80.472 42.8447L81.5595 30.6651L69.5974 28.0552L63.2901 17.6156L52.198 22.4004L40.8884 17.6156L34.7986 28.0552L22.8365 30.6651L23.924 42.8447L15.8767 52.1969L23.924 61.3316L22.8365 73.7287L34.7986 76.3386L41.1059 86.7782ZM47.6306 67.6389L72.2073 43.0622L66.1175 36.7549L47.6306 55.2418L38.2785 46.1071L32.1887 52.1969L47.6306 67.6389Z" fill="#1D679C"/>
</g>
</g>
</svg>
