<svg width="19" height="18" viewBox="0 0 19 18" fill="none" xmlns="http://www.w3.org/2000/svg">
<path d="M8.15 14V17.65H0.85V4.35H4.5H4.85V4V0.35H14.15V8V8.35H14.5H18.15V17.65H10.85V14V13.65H10.5H8.5H8.15V14ZM2.15 16V16.35H2.5H4.5H4.85V16V14V13.65H4.5H2.5H2.15V14V16ZM2.15 12V12.35H2.5H4.5H4.85V12V10V9.65H4.5H2.5H2.15V10V12ZM2.15 8V8.35H2.5H4.5H4.85V8V6V5.65H4.5H2.5H2.15V6V8ZM6.15 12V12.35H6.5H8.5H8.85V12V10V9.65H8.5H6.5H6.15V10V12ZM6.15 8V8.35H6.5H8.5H8.85V8V6V5.65H8.5H6.5H6.15V6V8ZM6.15 4V4.35H6.5H8.5H8.85V4V2V1.65H8.5H6.5H6.15V2V4ZM10.15 12V12.35H10.5H12.5H12.85V12V10V9.65H12.5H10.5H10.15V10V12ZM10.15 8V8.35H10.5H12.5H12.85V8V6V5.65H12.5H10.5H10.15V6V8ZM10.15 4V4.35H10.5H12.5H12.85V4V2V1.65H12.5H10.5H10.15V2V4ZM14.15 16V16.35H14.5H16.5H16.85V16V14V13.65H16.5H14.5H14.15V14V16ZM14.15 12V12.35H14.5H16.5H16.85V12V10V9.65H16.5H14.5H14.15V10V12Z" fill="#C7D9E6" stroke="#1D679C" stroke-width="0.7"/>
</svg>
