<svg width="99" height="83" viewBox="0 0 99 83" fill="none" xmlns="http://www.w3.org/2000/svg">
<g clip-path="url(#clip0_9277_9877)">
<path d="M65.3159 52.712C63.7409 57.1071 61.9636 60.8516 60.0563 64.2346C59.7384 64.7985 60.2297 65.4635 60.8799 65.3623C63.7987 64.8997 66.1395 65.5936 67.8589 66.9093C68.2202 67.1839 68.7114 67.2129 69.1305 67.0249L77.2365 63.3238C77.8 63.0636 78.1035 62.4274 77.9445 61.8347C76.3118 55.7192 73.8843 51.512 66.4574 51.8446C65.9372 51.8735 65.4893 52.2205 65.3159 52.712Z" fill="white"/>
<path d="M50.7609 39.1367C50.6164 39.1367 50.4719 39.1367 50.3419 39.1078C45.9637 38.6163 41.3978 36.9536 36.774 34.1778C34.4188 32.761 33.364 29.8839 34.2743 27.3394C35.488 23.913 37.9155 20.4288 41.4989 16.9734C42.4959 16.0048 44.0853 16.0048 45.0968 16.959C48.9258 20.6022 51.888 25.0552 53.9253 30.2165C54.6767 32.1393 54.8934 34.0911 54.5611 35.8549L54.4888 36.1729C54.1131 37.8789 52.5526 39.1223 50.7609 39.1223V39.1367Z" fill="white"/>
<path d="M80.4523 21.1512C80.2645 20.009 79.2819 19.1705 78.1404 19.1705L70.9591 19.2139C70.0777 19.2139 69.2541 18.7657 68.7773 18.0284L65.743 13.2429C64.7893 11.7394 63.1421 10.7852 61.3504 10.7852C57.0589 10.7852 52.334 11.3056 48.1437 12.6935C47.06 13.055 46.6121 14.7465 47.4935 15.7152C47.6958 15.932 47.9125 16.1344 48.1148 16.3513C48.5049 16.7561 48.8806 17.1754 49.2563 17.6091C49.4153 17.7826 49.5742 17.9561 49.7187 18.1296C50.21 18.7223 50.6868 19.3151 51.1492 19.9367C51.3081 20.1536 51.4671 20.3849 51.626 20.6162C51.9294 21.0355 52.2184 21.4548 52.5074 21.8885C52.6952 22.1632 52.8686 22.4523 53.042 22.727C53.2877 23.1318 53.5333 23.5511 53.7789 23.9704C53.9379 24.2595 54.1113 24.5487 54.2558 24.8378C54.5014 25.3005 54.7326 25.7631 54.9638 26.2257C55.0938 26.486 55.2239 26.7462 55.3539 27.0209C55.6718 27.7293 55.9897 28.4377 56.2787 29.1751C56.2787 29.204 56.3076 29.2473 56.322 29.2763C56.5099 29.7534 56.6399 30.2305 56.7844 30.7076C56.9722 31.4015 57.1312 32.0955 57.2034 32.775C57.2034 32.8039 57.2034 32.8328 57.2034 32.8473C57.2034 32.9485 57.2034 33.0497 57.2034 33.1364C57.2901 34.2207 57.2612 35.2906 57.0589 36.3315L57.03 36.4761L56.9867 36.6785C56.5388 38.7748 55.0505 40.423 53.1432 41.1892C52.3918 41.4928 51.5971 41.6663 50.759 41.6663C50.5278 41.6663 50.2822 41.6663 50.051 41.6229C49.2708 41.5362 48.4905 41.4061 47.7102 41.247C47.5657 41.2181 47.4212 41.1892 47.2623 41.1603C46.4965 41.0013 45.7162 40.8133 44.936 40.582L43.4332 41.3916C33.6944 45.1217 21.7882 47.6517 17.2222 48.5625C15.9362 48.8083 14.6214 48.2734 13.9422 47.1602C11.4281 43.0398 10.8645 35.9412 12.6996 28.9871C13.2776 26.8185 10.9657 24.9679 9.01503 26.0522C-2.26986 32.3412 -2.6311 47.7963 6.34191 54.6347C6.83319 55.0106 7.02103 55.7913 6.77539 56.3696C6.02402 58.1767 4.70914 61.7477 4.33346 65.4344C4.01558 68.4994 3.56765 75.9739 3.32201 80.022C3.23531 81.4966 4.40571 82.74 5.89399 82.74H13.7255C14.7803 82.74 15.734 82.0894 16.1241 81.1063L19.5341 72.4463C19.9387 71.4053 20.979 70.7547 22.0916 70.827C25.6028 71.0583 28.4493 71.0294 32.1194 70.4367C33.9979 70.1331 35.5584 71.8969 35.0093 73.7185L33.2754 79.4292C32.7697 81.0774 34.0123 82.7544 35.7318 82.7544H43.1876C44.0546 82.7544 44.8493 82.3063 45.3261 81.5978C53.0998 69.8873 60.9313 62.0369 65.5696 42.9819C65.9308 41.5217 67.1012 40.4085 68.575 40.1194L74.1958 39.0206C80.409 37.011 81.9695 30.5341 80.4668 21.1222L80.4523 21.1512ZM64.9482 24.6788C64.1535 25.0981 63.0409 24.5342 62.463 23.4354C61.885 22.3367 62.0439 21.0933 62.8386 20.6741C63.6334 20.2548 64.7459 20.8186 65.3239 21.9174C65.9019 23.0162 65.743 24.2595 64.9482 24.6788ZM79.1085 23.3053C78.3716 24.3173 76.7389 23.58 76.3632 22.7559C75.9875 21.9319 76.6233 20.8476 77.7648 20.3415C78.9063 19.8211 79.542 20.4427 79.6287 21.3391C79.7154 22.3367 79.6721 22.5391 79.1085 23.3053Z" fill="white"/>
<path d="M96.3868 4.10619L92.1965 4.84351C91.7341 4.9158 91.2717 4.78569 90.9394 4.45317L87.8762 1.48938C87.0236 0.665307 85.6076 1.15686 85.4342 2.32792L84.8274 6.5495C84.7551 7.01214 84.4806 7.40249 84.076 7.61935L80.3047 9.61448C79.2644 10.1639 79.2788 11.6674 80.3481 12.1879L84.1771 14.0674C84.5962 14.2698 84.8852 14.6601 84.9574 15.1228L85.6943 19.3154C85.8966 20.472 87.3271 20.9202 88.1507 20.0672L91.1128 17.0022C91.4307 16.6697 91.8931 16.5107 92.3554 16.583L96.5746 17.1902C97.745 17.3637 98.612 16.1203 98.0629 15.0794L96.0689 11.306C95.8522 10.9012 95.8522 10.4096 96.0545 9.99038L97.9329 6.15914C98.453 5.10375 97.5572 3.88933 96.3868 4.09173V4.10619Z" fill="white"/>
</g>
<defs>
<clipPath id="clip0_9277_9877">
<rect width="98.2552" height="82.4076" fill="white"/>
</clipPath>
</defs>
</svg>
