<?xml version="1.0" encoding="UTF-8"?>
<svg id="Layer_1" data-name="Layer 1" xmlns="http://www.w3.org/2000/svg" viewBox="0 0 126 126">
  <defs>
    <style>
      .cls-1 {
        fill: #4570b7;
      }
    </style>
  </defs>
  <path class="cls-1" d="M74.21,70.46c-1.09,3.04-2.32,5.63-3.64,7.97-.22.39.12.85.57.78,2.02-.32,3.64.16,4.83,1.07.25.19.59.21.88.08l5.61-2.56c.39-.18.6-.62.49-1.03-1.13-4.23-2.81-7.14-7.95-6.91-.36.02-.67.26-.79.6Z"/>
  <path class="cls-1" d="M64.13,61.07c-.1,0-.2,0-.29-.02-3.03-.34-6.19-1.49-9.39-3.41-1.63-.98-2.36-2.97-1.73-4.73.84-2.37,2.52-4.78,5-7.17.69-.67,1.79-.67,2.49-.01,2.65,2.52,4.7,5.6,6.11,9.17.52,1.33.67,2.68.44,3.9l-.05.22c-.26,1.18-1.34,2.04-2.58,2.04h0Z"/>
  <path class="cls-1" d="M84.68,48.63c-.13-.79-.81-1.37-1.6-1.37l-4.97.03c-.61,0-1.18-.31-1.51-.82l-2.1-3.31c-.66-1.04-1.8-1.7-3.04-1.7-2.97,0-6.24.36-9.14,1.32-.75.25-1.06,1.42-.45,2.09.14.15.29.29.43.44.27.28.53.57.79.87.11.12.22.24.32.36.34.41.67.82.99,1.25.11.15.22.31.33.47.21.29.41.58.61.88.13.19.25.39.37.58.17.28.34.57.51.86.11.2.23.4.33.6.17.32.33.64.49.96.09.18.18.36.27.55.22.49.44.98.64,1.49,0,.02.02.05.03.07.13.33.22.66.32.99.13.48.24.96.29,1.43,0,.02,0,.04,0,.05,0,.07,0,.14,0,.2.06.75.04,1.49-.1,2.21l-.02.1-.03.14s0,0,0,0h0c-.31,1.45-1.34,2.59-2.66,3.12-.52.21-1.07.33-1.65.33h0c-.16,0-.33,0-.49-.03-.54-.06-1.08-.15-1.62-.26-.1-.02-.2-.04-.31-.06-.53-.11-1.07-.24-1.61-.4l-1.04.56c-6.74,2.58-14.98,4.33-18.14,4.96-.89.17-1.8-.2-2.27-.97-1.74-2.85-2.13-7.76-.86-12.57.4-1.5-1.2-2.78-2.55-2.03-7.81,4.35-8.06,15.04-1.85,19.77.34.26.47.8.3,1.2-.52,1.25-1.43,3.72-1.69,6.27-.22,2.12-.53,7.29-.7,10.09-.06,1.02.75,1.88,1.78,1.88h5.42c.73,0,1.39-.45,1.66-1.13l2.36-5.99c.28-.72,1-1.17,1.77-1.12,2.43.16,4.4.14,6.94-.27,1.3-.21,2.38,1.01,2,2.27l-1.2,3.95c-.35,1.14.51,2.3,1.7,2.3h5.16c.6,0,1.15-.31,1.48-.8,5.38-8.1,10.8-13.53,14.01-26.71.25-1.01,1.06-1.78,2.08-1.98l3.89-.76c4.3-1.39,5.38-5.87,4.34-12.38ZM73.95,51.07c-.55.29-1.32-.1-1.72-.86-.4-.76-.29-1.62.26-1.91s1.32.1,1.72.86c.4.76.29,1.62-.26,1.91ZM83.75,50.12c-.51.7-1.64.19-1.9-.38-.26-.57.18-1.32.97-1.67.79-.36,1.23.07,1.29.69.06.69.03.83-.36,1.36Z"/>
  <path class="cls-1" d="M95.7,36.84l-2.9.51c-.32.05-.64-.04-.87-.27l-2.12-2.05c-.59-.57-1.57-.23-1.69.58l-.42,2.92c-.05.32-.24.59-.52.74l-2.61,1.38c-.72.38-.71,1.42.03,1.78l2.65,1.3c.29.14.49.41.54.73l.51,2.9c.14.8,1.13,1.11,1.7.52l2.05-2.12c.22-.23.54-.34.86-.29l2.92.42c.81.12,1.41-.74,1.03-1.46l-1.38-2.61c-.15-.28-.15-.62-.01-.91l1.3-2.65c.36-.73-.26-1.57-1.07-1.43Z"/>
</svg>