<svg width="15" height="18" viewBox="0 0 15 18" fill="none" xmlns="http://www.w3.org/2000/svg">
<path d="M8.3125 2.6H2.625C2.19402 2.6 1.7807 2.76857 1.47595 3.06863C1.1712 3.36869 1 3.77565 1 4.2V13.8C1 14.2243 1.1712 14.6313 1.47595 14.9314C1.7807 15.2314 2.19402 15.4 2.625 15.4H8.3125M11.5625 2.6H12.375C12.806 2.6 13.2193 2.76857 13.524 3.06863C13.8288 3.36869 14 3.77565 14 4.2V5M14 13V13.8C14 14.2243 13.8288 14.6313 13.524 14.9314C13.2193 15.2314 12.806 15.4 12.375 15.4H11.5625M14 8.2V9.8M7.5 1V17" stroke="#5A5A5A" stroke-width="2" stroke-linecap="round" stroke-linejoin="round"/>
</svg>
