<svg width="316" height="325" viewBox="0 0 316 325" fill="none" xmlns="http://www.w3.org/2000/svg">
<path d="M93.6073 195.484L225.01 196.161L230.225 318.96C230.225 318.96 175.886 321.869 156.791 321.825C136.824 321.771 88.9805 318.702 88.9805 318.702L93.6073 195.484Z" fill="white"/>
<path d="M85.3676 27.4922L228.16 28.4087L259.115 154.526H57.7754L85.3676 27.4922Z" fill="white"/>
<path d="M255.484 154.5C237.252 195.11 191.491 214.765 157.056 212.852C124.668 211.055 84.6632 197.343 60.9238 154.5" fill="white"/>
<path d="M255.484 154.5C237.252 195.11 191.491 214.765 157.056 212.852C124.668 211.055 84.6632 197.343 60.9238 154.5" stroke="#5682E0" stroke-width="6" stroke-miterlimit="10"/>
<path d="M79.3529 61.4081L58.1404 168.565C57.1083 175.567 50.8442 180.772 43.4501 180.772C35.6912 180.772 29.3026 174.935 28.9378 167.515C28.6619 161.793 26.66 156.277 23.172 151.623L11.8629 136.532C-0.700872 119.769 0.171105 96.9994 13.9805 81.1612L53.0153 36.3963C54.9728 34.154 58.1227 32.1965 61.575 30.5504C70.2415 26.4307 79.9134 24.6156 89.5943 24.8202L90.9912 24.8469" fill="white"/>
<path d="M79.3529 61.4081L58.1405 168.565C57.1083 175.567 50.8442 180.772 43.4501 180.772C35.6912 180.772 29.3026 174.935 28.9378 167.515C28.6619 161.793 26.66 156.277 23.172 151.623L11.8629 136.532C-0.700872 119.769 0.171105 96.9994 13.9805 81.1612L53.0153 36.3963C54.9728 34.154 58.1227 32.1965 61.575 30.5504C70.2415 26.4307 79.9134 24.6156 89.5943 24.8202L90.9912 24.8469" stroke="#5682E0" stroke-width="5" stroke-miterlimit="10" stroke-linecap="round"/>
<path d="M236.646 61.4081L257.859 168.565C258.891 175.567 265.155 180.772 272.549 180.772C280.308 180.772 286.696 174.935 287.061 167.515C287.337 161.793 289.339 156.277 292.827 151.623L304.136 136.532C316.7 119.769 315.828 96.9994 302.019 81.1612L262.984 36.3963C261.026 34.154 257.876 32.1965 254.424 30.5504C245.758 26.4307 236.086 24.6156 226.405 24.8202L225.008 24.8469" fill="white"/>
<path d="M236.646 61.4081L257.859 168.565C258.891 175.567 265.155 180.772 272.549 180.772C280.308 180.772 286.696 174.935 287.061 167.515C287.337 161.793 289.339 156.277 292.827 151.623L304.136 136.532C316.7 119.769 315.828 96.9994 302.019 81.1612L262.984 36.3963C261.026 34.154 257.876 32.1965 254.424 30.5504C245.758 26.4307 236.086 24.6156 226.405 24.8202L225.008 24.8469" stroke="#5682E0" stroke-width="5" stroke-miterlimit="10" stroke-linecap="round"/>
<path d="M174.567 128.58C174.567 135.004 168.16 144.008 158.213 144.008C148.265 144.008 142.33 135.004 142.33 128.58C142.33 122.155 148.265 116.719 158.213 116.719C168.16 116.719 174.567 122.155 174.567 128.58Z" fill="#5682E0"/>
<path d="M174.613 168.922C165.014 154.513 150.823 155.139 142.893 168.922" stroke="#5682E0" stroke-width="6" stroke-miterlimit="10" stroke-linecap="round"/>
<path d="M158.072 142.859V156.544" stroke="#5682E0" stroke-width="6" stroke-miterlimit="10"/>
<path d="M113.942 100.318C116.06 100.318 117.777 98.6014 117.777 96.4834C117.777 94.3654 116.06 92.6484 113.942 92.6484C111.824 92.6484 110.107 94.3654 110.107 96.4834C110.107 98.6014 111.824 100.318 113.942 100.318Z" fill="white"/>
<path d="M201.698 99.6387C203.816 99.6387 205.533 97.9217 205.533 95.8037C205.533 93.6857 203.816 91.9688 201.698 91.9688C199.58 91.9688 197.863 93.6857 197.863 95.8037C197.863 97.9217 199.58 99.6387 201.698 99.6387Z" fill="white"/>
<path d="M145.863 216.031L151.371 228.542H162.04L167.707 216.031H145.863Z" fill="#5682E0"/>
<path d="M158.108 231.594H159.487C161.561 231.594 163.349 233.053 163.767 235.091L176.393 297.206C176.74 298.924 176.028 300.685 174.587 301.673L161.463 310.669C159.95 311.701 157.957 311.683 156.471 310.624L143.276 301.255C141.87 300.258 141.185 298.532 141.523 296.842L153.837 235.108C154.229 233.062 156.026 231.594 158.108 231.594Z" fill="#5682E0"/>
<path d="M93.603 193.461C90.64 197.856 19.5464 270.053 46.6492 301.614C49.1673 304.55 54.3814 307.7 55.547 308.474C73.0223 319.997 87.6593 320.958 104.263 321.688C120.991 322.426 124.941 319.935 127.148 317.87C131.695 313.608 133.536 306.695 132.433 300.831C130.992 293.206 124.888 289.086 118.348 284.681C113.374 281.318 104.227 276.229 90.7646 274.404" fill="white"/>
<path d="M93.603 193.461C90.64 197.856 19.5464 270.053 46.6492 301.614C49.1673 304.55 54.3814 307.7 55.547 308.474C73.0223 319.997 87.6593 320.958 104.263 321.688C120.991 322.426 124.941 319.935 127.148 317.87C131.695 313.608 133.536 306.695 132.433 300.831C130.992 293.206 124.888 289.086 118.348 284.681C113.374 281.318 104.227 276.229 90.7646 274.404" stroke="#5682E0" stroke-width="5" stroke-miterlimit="10" stroke-linecap="round"/>
<path d="M224.556 192.117C227.519 196.513 296.21 270.044 269.107 301.605C266.589 304.541 261.375 307.691 260.209 308.465C242.734 319.988 230.428 320.949 213.834 321.678C197.106 322.417 193.155 319.926 190.948 317.861C186.402 313.599 184.56 306.686 185.663 300.822C187.105 293.196 193.209 289.077 199.748 284.672C204.722 281.309 213.869 276.219 227.332 274.395" fill="white"/>
<path d="M224.556 192.117C227.519 196.513 296.21 270.044 269.107 301.605C266.589 304.541 261.375 307.691 260.209 308.465C242.734 319.988 230.428 320.949 213.834 321.678C197.106 322.417 193.155 319.926 190.948 317.861C186.402 313.599 184.56 306.686 185.663 300.822C187.105 293.196 193.209 289.077 199.748 284.672C204.722 281.309 213.869 276.219 227.332 274.395" stroke="#5682E0" stroke-width="6" stroke-miterlimit="10" stroke-linecap="round"/>
<path d="M224.795 204.576C224.786 207.602 223.318 210.449 220.827 212.157C200.166 226.314 175.199 232.711 154.44 231.305C136.6 230.095 116.491 225.246 98.1525 213.91C95.4387 212.237 93.8193 209.248 93.8282 206.053L93.837 200.572C93.8459 197.058 97.6542 194.904 100.697 196.675C118.351 206.934 137.445 211.41 154.476 212.567C174.362 213.91 198.111 208.1 218.238 195.162C221.085 193.329 224.822 195.34 224.813 198.722L224.795 204.576Z" fill="white" stroke="#5682E0" stroke-width="5" stroke-miterlimit="10"/>
<path d="M148.718 217.194L151.948 224.535C152.428 225.629 153.505 226.332 154.697 226.332H162.189C163.373 226.332 164.44 225.638 164.93 224.57L168.257 217.23C169.156 215.237 167.706 212.977 165.517 212.977H151.467C149.296 212.977 147.837 215.21 148.718 217.194Z" fill="#5682E0"/>
<path d="M87.8242 29.7113C107.898 13.2503 132.269 3 158.535 3C183.734 3 206.975 12.6007 226.292 28.1097" fill="white"/>
<path d="M87.8242 29.7113C107.898 13.2503 132.269 3 158.535 3C183.734 3 206.975 12.6007 226.292 28.1097" stroke="#5682E0" stroke-width="5" stroke-miterlimit="10" stroke-linecap="round"/>
<path d="M103.041 90.0234L124.188 109.543" stroke="#5682E0" stroke-width="5" stroke-linecap="round"/>
<path d="M193.32 86.7734L214.467 106.293" stroke="#5682E0" stroke-width="5" stroke-linecap="round"/>
<path d="M193.32 106.297L214.467 86.7766" stroke="#5682E0" stroke-width="5" stroke-linecap="round"/>
<path d="M103.041 109.547L124.188 90.0266" stroke="#5682E0" stroke-width="5" stroke-linecap="round"/>
</svg>
