<svg width="100" height="100" viewBox="0 0 100 100" fill="none" xmlns="http://www.w3.org/2000/svg">
<path d="M57.1018 53.1057C60.5002 50.8049 62.7034 46.9065 62.7034 42.5037C62.7034 35.5037 57.0042 29.8047 50.0044 29.8047C43.0046 29.8047 37.3054 35.5039 37.3054 42.5037C37.3054 46.9021 39.5046 50.8045 42.907 53.1057C34.3054 55.3049 28.208 61.4065 28.208 68.6057C28.208 69.5041 28.9072 70.1057 29.708 70.1057C30.5088 70.1057 31.208 69.4065 31.208 68.6057C31.208 61.2073 39.6064 55.2077 50.009 55.2077C60.407 55.2077 68.81 61.2077 68.81 68.6057C68.81 69.5041 69.5092 70.1057 70.31 70.1057C71.1108 70.1057 71.81 69.4065 71.81 68.6057C71.8022 61.5041 65.7006 55.4027 57.103 53.1057H57.1018ZM50.0002 52.2033C44.6994 52.2033 40.301 47.9025 40.301 42.5041C40.301 37.1057 44.6018 32.8049 50.0002 32.8049C55.3986 32.8049 59.6994 37.1057 59.6994 42.5041C59.6994 47.9025 55.301 52.2033 50.0002 52.2033Z" fill="#151515"/>
<path d="M50 10C27.898 10 10 27.898 10 50C10 72.102 27.898 90 50 90C72.102 90 90 72.102 90 50C90 27.898 72.102 10 50 10ZM50 86.898C29.602 86.898 13.102 70.296 13.102 50C13.102 29.699 29.602 13.102 50 13.102C70.398 13.102 86.898 29.602 86.898 50C86.898 70.398 70.398 86.898 50 86.898Z" fill="#151515"/>
</svg>
