<svg xmlns="http://www.w3.org/2000/svg" width="164" height="72" viewBox="0 0 164 72" fill="none">
  <path d="M48.765 101.792L116.586 102.141L119.277 165.521C119.277 165.521 91.2311 167.023 81.3757 167C71.0704 166.972 46.377 165.388 46.377 165.388L48.765 101.792Z" fill="white"/>
  <path d="M44.5126 15.083L118.212 15.556L134.189 80.6489H30.2715L44.5126 15.083Z" fill="white"/>
  <path d="M132.314 80.6396C122.904 101.599 99.2856 111.744 81.513 110.757C64.7966 109.829 44.1491 102.752 31.8965 80.6396" fill="white"/>
  <path d="M132.314 80.6396C122.904 101.599 99.2856 111.744 81.513 110.757C64.7966 109.829 44.1491 102.752 31.8965 80.6396" stroke="#306794" stroke-width="2" stroke-miterlimit="10"/>
  <path d="M41.4078 32.5893L30.4595 87.8958C29.9268 91.51 26.6937 94.1965 22.8774 94.1965C18.8729 94.1965 15.5755 91.1839 15.3872 87.3539C15.2448 84.4009 14.2116 81.5536 12.4113 79.1518L6.57437 71.3631C0.0898769 62.7109 0.539929 50.9589 7.66736 42.7844L27.8143 19.68C28.8246 18.5227 30.4503 17.5124 32.2322 16.6628C36.7052 14.5365 41.6972 13.5996 46.6937 13.7053L47.4147 13.719" fill="white"/>
  <path d="M41.4078 32.5893L30.4595 87.8958C29.9268 91.51 26.6937 94.1965 22.8774 94.1965C18.8729 94.1965 15.5755 91.1839 15.3872 87.3539C15.2448 84.4009 14.2116 81.5536 12.4113 79.1518L6.57437 71.3631C0.0898769 62.7109 0.539929 50.9589 7.66736 42.7844L27.8143 19.68C28.8246 18.5227 30.4503 17.5124 32.2322 16.6628C36.7052 14.5365 41.6972 13.5996 46.6937 13.7053L47.4147 13.719" stroke="#306794" stroke-width="2" stroke-miterlimit="10" stroke-linecap="round"/>
  <path d="M122.591 32.5893L133.539 87.8958C134.072 91.51 137.305 94.1965 141.121 94.1965C145.126 94.1965 148.423 91.1839 148.612 87.3539C148.754 84.4009 149.787 81.5536 151.587 79.1518L157.424 71.3631C163.909 62.7109 163.459 50.9589 156.331 42.7844L136.184 19.68C135.174 18.5227 133.548 17.5124 131.766 16.6628C127.293 14.5365 122.302 13.5996 117.305 13.7053L116.584 13.719" fill="white"/>
  <path d="M122.591 32.5893L133.539 87.8958C134.072 91.51 137.305 94.1965 141.121 94.1965C145.126 94.1965 148.423 91.1839 148.612 87.3539C148.754 84.4009 149.787 81.5536 151.587 79.1518L157.424 71.3631C163.909 62.7109 163.459 50.9589 156.331 42.7844L136.184 19.68C135.174 18.5227 133.548 17.5124 131.766 16.6628C127.293 14.5365 122.302 13.5996 117.305 13.7053L116.584 13.719" stroke="#306794" stroke-width="2" stroke-miterlimit="10" stroke-linecap="round"/>
  <path d="M90.5504 67.2613C90.5504 70.5771 87.2439 75.2246 82.1096 75.2246C76.9753 75.2246 73.9121 70.5771 73.9121 67.2613C73.9121 63.9456 76.9753 61.1396 82.1096 61.1396C87.2439 61.1396 90.5504 63.9456 90.5504 67.2613Z" fill="#306794"/>
  <path d="M65.0127 77.6182C64.2825 82.5734 68.5764 83.5148 69.8944 83.6388C73.2652 83.9603 75.4834 81.0395 82.8588 81.2967C86.2939 81.4161 89.9679 83.6342 94.101 83.5056C96.2273 83.4368 100.769 81.6733 100.236 78.1693" stroke="#306794" stroke-width="2" stroke-miterlimit="10" stroke-linecap="round"/>
  <path d="M82.0371 74.6328V81.696" stroke="#306794" stroke-width="2" stroke-miterlimit="10"/>
  <path d="M114.963 51.2343C115.248 54.5041 110.187 60.3548 105.733 60.2629C101.402 60.1711 97.8887 56.7497 97.8887 52.4145C97.8887 48.0793 102.16 44.5064 106.431 45.2228C110.362 45.8703 114.72 48.4467 114.963 51.2343Z" fill="#306794"/>
  <path d="M49.1013 51.496C48.8165 54.7658 53.9141 60.6165 58.332 60.5247C62.6627 60.4328 66.1759 57.0115 66.1759 52.6762C66.1759 48.341 61.9049 44.7681 57.634 45.4845C53.7075 46.1366 49.3447 48.713 49.1013 51.496Z" fill="#306794"/>
  <path d="M59.2606 52.6716C60.3537 52.6716 61.2399 51.7854 61.2399 50.6922C61.2399 49.5991 60.3537 48.7129 59.2606 48.7129C58.1674 48.7129 57.2812 49.5991 57.2812 50.6922C57.2812 51.7854 58.1674 52.6716 59.2606 52.6716Z" fill="white"/>
  <path d="M104.554 52.3229C105.647 52.3229 106.533 51.4367 106.533 50.3436C106.533 49.2504 105.647 48.3643 104.554 48.3643C103.46 48.3643 102.574 49.2504 102.574 50.3436C102.574 51.4367 103.46 52.3229 104.554 52.3229Z" fill="white"/>
  <path d="M75.7363 112.396L78.579 118.853H84.0853L87.0107 112.396H75.7363Z" fill="#306794"/>
  <path d="M82.0554 120.428H82.7672C83.8373 120.428 84.7603 121.181 84.9762 122.233L91.4928 154.292C91.6719 155.179 91.3045 156.088 90.5606 156.598L83.7868 161.241C83.006 161.773 81.9774 161.764 81.2104 161.218L74.3999 156.382C73.6743 155.867 73.3206 154.976 73.4952 154.104L79.8511 122.242C80.0531 121.185 80.9808 120.428 82.0554 120.428Z" fill="#306794"/>
  <path d="M48.7634 100.745C47.2341 103.014 10.5407 140.277 24.5292 156.566C25.8289 158.081 28.52 159.707 29.1216 160.107C38.1411 166.054 45.6957 166.55 54.2651 166.926C62.8989 167.308 64.9379 166.022 66.0768 164.956C68.4235 162.757 69.3742 159.188 68.8047 156.162C68.0607 152.226 64.9103 150.1 61.5349 147.827C58.9678 146.091 54.2468 143.464 47.2984 142.522" fill="white"/>
  <path d="M48.7634 100.745C47.2341 103.014 10.5407 140.277 24.5292 156.566C25.8289 158.081 28.52 159.707 29.1216 160.107C38.1411 166.054 45.6957 166.55 54.2651 166.926C62.8989 167.308 64.9379 166.022 66.0768 164.956C68.4235 162.757 69.3742 159.188 68.8047 156.162C68.0607 152.226 64.9103 150.1 61.5349 147.827C58.9678 146.091 54.2468 143.464 47.2984 142.522" stroke="#306794" stroke-width="2" stroke-miterlimit="10" stroke-linecap="round"/>
  <path d="M116.351 100.056C117.881 102.324 153.334 140.276 139.346 156.565C138.046 158.081 135.355 159.707 134.753 160.106C125.734 166.053 119.382 166.549 110.818 166.926C102.184 167.307 100.145 166.021 99.0059 164.956C96.6592 162.756 95.7086 159.188 96.278 156.161C97.022 152.226 100.172 150.099 103.548 147.826C106.115 146.09 110.836 143.463 117.784 142.522" fill="white"/>
  <path d="M116.351 100.056C117.881 102.324 153.334 140.276 139.346 156.565C138.046 158.081 135.355 159.707 134.753 160.106C125.734 166.053 119.382 166.549 110.818 166.926C102.184 167.307 100.145 166.021 99.0059 164.956C96.6592 162.756 95.7086 159.188 96.278 156.161C97.022 152.226 100.172 150.099 103.548 147.826C106.115 146.09 110.836 143.463 117.784 142.522" stroke="#306794" stroke-width="2
  " stroke-miterlimit="10" stroke-linecap="round"/>
  <path d="M116.475 106.485C116.47 108.047 115.712 109.516 114.426 110.398C103.763 117.705 90.8766 121.007 80.1625 120.281C70.9547 119.656 60.5758 117.154 51.1108 111.303C49.7101 110.439 48.8743 108.896 48.8789 107.248L48.8835 104.419C48.8881 102.605 50.8537 101.493 52.4243 102.407C61.5356 107.702 71.3909 110.012 80.1808 110.609C90.4449 111.303 102.702 108.304 113.09 101.627C114.56 100.681 116.488 101.718 116.484 103.464L116.475 106.485Z" fill="white" stroke="#306794" stroke-width="5" stroke-miterlimit="10"/>
  <path d="M77.2088 112.997L78.8759 116.786C79.1239 117.351 79.6795 117.714 80.2949 117.714H84.1617C84.7725 117.714 85.3236 117.355 85.5762 116.804L87.2938 113.015C87.7576 111.987 87.009 110.82 85.8793 110.82H78.6279C77.5073 110.82 76.7542 111.973 77.2088 112.997Z" fill="#306794"/>
  <path d="M45.7793 16.2308C56.1398 7.73479 68.7184 2.44434 82.2752 2.44434C95.281 2.44434 107.276 7.39955 117.246 15.4041" fill="white"/>
  <path d="M45.7793 16.2308C56.1398 7.73479 68.7184 2.44434 82.2752 2.44434C95.281 2.44434 107.276 7.39955 117.246 15.4041" stroke="#306794" stroke-width="2" stroke-miterlimit="10" stroke-linecap="round"/>
</svg>