<svg width="772" height="338" viewBox="0 0 772 338" fill="none" xmlns="http://www.w3.org/2000/svg">
<g clip-path="url(#clip0_1914_7141)">
<path d="M207.466 65.1914L558.459 67.4442L634.549 377.45H139.643L207.466 65.1914Z" fill="white"/>
<path d="M192.68 148.565L140.539 411.963C138.002 429.176 122.604 441.971 104.429 441.971C85.3571 441.971 69.6535 427.623 68.7567 409.382C68.0787 395.319 63.1577 381.758 54.5841 370.32L26.7855 333.226C-4.09699 292.02 -1.95362 236.051 31.9909 197.12L127.941 87.0847C132.753 81.5731 140.495 76.7614 148.981 72.7151C170.284 62.5887 194.058 58.1269 217.854 58.6299L221.288 58.6955" fill="white"/>
<path d="M192.68 148.565L140.539 411.963C138.002 429.176 122.604 441.971 104.429 441.971C85.3571 441.971 69.6535 427.623 68.7567 409.382C68.0787 395.319 63.1577 381.758 54.5841 370.32L26.7855 333.226C-4.09699 292.02 -1.95362 236.051 31.9909 197.12L127.941 87.0847C132.753 81.5731 140.495 76.7614 148.981 72.7151C170.284 62.5887 194.058 58.1269 217.854 58.6299L221.288 58.6955" stroke="#306794" stroke-width="9" stroke-miterlimit="10" stroke-linecap="round"/>
<path d="M579.315 148.565L631.456 411.963C633.993 429.176 649.391 441.971 667.566 441.971C686.638 441.971 702.342 427.623 703.238 409.382C703.916 395.319 708.837 381.758 717.411 370.32L745.21 333.226C776.092 292.02 773.949 236.051 740.004 197.12L644.054 87.0847C639.243 81.5731 631.5 76.7614 623.014 72.7151C601.711 62.5887 577.937 58.1269 554.141 58.6299L550.707 58.6955" fill="white"/>
<path d="M579.315 148.565L631.456 411.963C633.993 429.176 649.391 441.971 667.566 441.971C686.638 441.971 702.342 427.623 703.238 409.382C703.916 395.319 708.837 381.758 717.411 370.32L745.21 333.226C776.092 292.02 773.949 236.051 740.004 197.12L644.054 87.0847C639.243 81.5731 631.5 76.7614 623.014 72.7151C601.711 62.5887 577.937 58.1269 554.141 58.6299L550.707 58.6955" stroke="#306794" stroke-width="9" stroke-miterlimit="10" stroke-linecap="round"/>
<path d="M426.723 313.692C426.723 329.483 410.975 351.617 386.523 351.617C362.071 351.617 347.482 329.483 347.482 313.692C347.482 297.901 362.071 284.537 386.523 284.537C410.975 284.537 426.723 297.901 426.723 313.692Z" fill="#306794"/>
<path d="M542.99 237.362C544.346 252.935 520.244 280.799 499.028 280.362C478.403 279.924 461.672 263.63 461.672 242.983C461.672 222.337 482.012 205.321 502.353 208.733C521.075 211.817 541.831 224.086 542.99 237.362Z" fill="#306794"/>
<path d="M229.32 238.608C227.964 254.181 252.241 282.045 273.282 281.608C293.906 281.17 310.638 264.876 310.638 244.229C310.638 223.583 290.298 206.567 269.957 209.979C251.257 213.084 230.479 225.354 229.32 238.608Z" fill="#306794"/>
<path d="M277.704 244.209C282.91 244.209 287.131 239.988 287.131 234.782C287.131 229.576 282.91 225.355 277.704 225.355C272.498 225.355 268.277 229.576 268.277 234.782C268.277 239.988 272.498 244.209 277.704 244.209Z" fill="white"/>
<path d="M493.413 242.547C498.619 242.547 502.839 238.326 502.839 233.12C502.839 227.914 498.619 223.693 493.413 223.693C488.207 223.693 483.986 227.914 483.986 233.12C483.986 238.326 488.207 242.547 493.413 242.547Z" fill="white"/>
<path d="M213.5 70.658C262.842 30.1959 322.748 5 387.312 5C449.252 5 506.38 28.5992 553.863 66.7212" fill="white"/>
<path d="M213.5 70.658C262.842 30.1959 322.748 5 387.312 5C449.252 5 506.38 28.5992 553.863 66.7212" stroke="#306794" stroke-width="9" stroke-miterlimit="10" stroke-linecap="round"/>
</g>
<defs>
<clipPath id="clip0_1914_7141">
<rect width="772" height="338" fill="white"/>
</clipPath>
</defs>
</svg>
