<svg width="147" height="124" viewBox="0 0 147 124" fill="none" xmlns="http://www.w3.org/2000/svg">
<path d="M43.9025 90.6562L104.671 90.9685L107.083 147.679C107.083 147.679 81.953 149.022 73.1224 149.002C63.8885 148.977 41.7627 147.559 41.7627 147.559L43.9025 90.6562Z" fill="white"/>
<path d="M40.0919 13.0781L106.128 13.5014L120.444 71.7441H27.3315L40.0919 13.0781Z" fill="white"/>
<path d="M118.764 71.7266C110.333 90.4806 89.1698 99.5577 73.2451 98.6742C58.2668 97.8442 39.7662 91.512 28.7876 71.7266" fill="white"/>
<path d="M118.764 71.7266C110.333 90.4806 89.1698 99.5577 73.2451 98.6742C58.2668 97.8442 39.7662 91.512 28.7876 71.7266" stroke="#1250B3" stroke-width="3" stroke-miterlimit="10"/>
<path d="M37.3103 28.7398L27.5004 78.226C27.023 81.4599 24.1261 83.8637 20.7066 83.8637C17.1185 83.8637 14.1639 81.1682 13.9952 77.7411C13.8677 75.099 12.9418 72.5513 11.3288 70.4022L6.09874 63.4332C0.288487 55.6916 0.691743 45.1763 7.07808 37.8621L25.1302 17.1891C26.0355 16.1536 27.4921 15.2496 29.0887 14.4894C33.0966 12.5869 37.5695 11.7486 42.0466 11.8431L42.6926 11.8554" fill="white"/>
<path d="M37.3103 28.7398L27.5004 78.226C27.023 81.4599 24.1261 83.8637 20.7066 83.8637C17.1185 83.8637 14.1639 81.1682 13.9952 77.7411C13.8677 75.099 12.9418 72.5513 11.3288 70.4022L6.09874 63.4332C0.288487 55.6916 0.691744 45.1763 7.07808 37.8621L25.1302 17.1891C26.0355 16.1536 27.4921 15.2496 29.0887 14.4894C33.0966 12.5869 37.5695 11.7486 42.0466 11.8431L42.6926 11.8554" stroke="#1250B3" stroke-width="3" stroke-miterlimit="10" stroke-linecap="round"/>
<path d="M110.052 28.7398L119.862 78.226C120.339 81.4599 123.236 83.8637 126.655 83.8637C130.244 83.8637 133.198 81.1682 133.367 77.7411C133.494 75.099 134.42 72.5513 136.033 70.4022L141.263 63.4332C147.074 55.6916 146.67 45.1763 140.284 37.8621L122.232 17.1891C121.327 16.1536 119.87 15.2496 118.273 14.4894C114.265 12.5869 109.792 11.7486 105.315 11.8431L104.669 11.8554" fill="white"/>
<path d="M110.052 28.7398L119.862 78.226C120.339 81.4599 123.236 83.8637 126.655 83.8637C130.244 83.8637 133.198 81.1682 133.367 77.7411C133.494 75.099 134.42 72.5513 136.033 70.4022L141.263 63.4332C147.074 55.6916 146.67 45.1763 140.284 37.8621L122.232 17.1891C121.327 16.1536 119.87 15.2496 118.273 14.4894C114.265 12.5869 109.792 11.7486 105.315 11.8431L104.669 11.8554" stroke="#1250B3" stroke-width="3" stroke-miterlimit="10" stroke-linecap="round"/>
<path d="M81.3434 59.7665C81.3434 62.7333 78.3806 66.8918 73.7802 66.8918C69.1797 66.8918 66.4351 62.7333 66.4351 59.7665C66.4351 56.7997 69.1797 54.2891 73.7802 54.2891C78.3806 54.2891 81.3434 56.7997 81.3434 59.7665Z" fill="#1250B3"/>
<path d="M58.4606 69.0391C57.8063 73.4728 61.6537 74.3152 62.8347 74.4261C65.8551 74.7138 67.8426 72.1004 74.4511 72.3305C77.5291 72.4373 80.821 74.422 84.5244 74.307C86.4296 74.2453 90.4992 72.6674 90.0219 69.5322" stroke="#1250B3" stroke-width="3" stroke-miterlimit="10" stroke-linecap="round"/>
<path d="M73.7153 66.3594V72.6792" stroke="#1250B3" stroke-width="3" stroke-miterlimit="10"/>
<path d="M103.217 45.422C103.472 48.3477 98.9377 53.5827 94.9462 53.5006C91.0659 53.4184 87.918 50.3571 87.918 46.4781C87.918 42.5991 91.7448 39.4022 95.5717 40.0432C99.094 40.6226 102.999 42.9278 103.217 45.422Z" fill="#1250B3"/>
<path d="M44.2041 45.6642C43.9489 48.5899 48.5165 53.8249 52.475 53.7428C56.3554 53.6606 59.5033 50.5993 59.5033 46.7203C59.5033 42.8412 55.6764 39.6443 51.8496 40.2854C48.3313 40.8689 44.4222 43.1741 44.2041 45.6642Z" fill="#1250B3"/>
<path d="M53.3072 46.7218C54.2867 46.7218 55.0807 45.9288 55.0807 44.9507C55.0807 43.9726 54.2867 43.1797 53.3072 43.1797C52.3277 43.1797 51.5337 43.9726 51.5337 44.9507C51.5337 45.9288 52.3277 46.7218 53.3072 46.7218Z" fill="white"/>
<path d="M93.8907 46.3936C94.8702 46.3936 95.6642 45.6007 95.6642 44.6226C95.6642 43.6445 94.8702 42.8516 93.8907 42.8516C92.9112 42.8516 92.1172 43.6445 92.1172 44.6226C92.1172 45.6007 92.9112 46.3936 93.8907 46.3936Z" fill="white"/>
<path d="M68.0693 100.148L70.6165 105.926H75.5502L78.1714 100.148H68.0693Z" fill="#1250B3"/>
<path d="M73.7311 107.336H74.3689C75.3277 107.336 76.1548 108.01 76.3482 108.951L82.1872 137.637C82.3477 138.43 82.0185 139.243 81.3519 139.699L75.2824 143.854C74.5829 144.33 73.6611 144.322 72.9739 143.833L66.8715 139.506C66.2214 139.046 65.9045 138.249 66.0609 137.468L71.7559 108.959C71.937 108.014 72.7682 107.336 73.7311 107.336Z" fill="#1250B3"/>
<path d="M43.9009 89.7188C42.5306 91.7487 9.65252 125.09 22.1865 139.665C23.351 141.021 25.7624 142.476 26.3014 142.833C34.3831 148.155 41.1521 148.598 48.8306 148.935C56.5666 149.276 58.3936 148.126 59.4141 147.173C61.5168 145.204 62.3686 142.011 61.8584 139.304C61.1917 135.782 58.3689 133.88 55.3445 131.846C53.0442 130.292 48.8141 127.942 42.5882 127.099" fill="white"/>
<path d="M43.9009 89.7188C42.5306 91.7487 9.65252 125.09 22.1865 139.665C23.351 141.021 25.7624 142.476 26.3014 142.833C34.3831 148.155 41.1521 148.598 48.8306 148.935C56.5666 149.276 58.3936 148.126 59.4141 147.173C61.5168 145.204 62.3686 142.011 61.8584 139.304C61.1917 135.782 58.3689 133.88 55.3445 131.846C53.0442 130.292 48.8141 127.942 42.5882 127.099" stroke="#1250B3" stroke-width="3" stroke-miterlimit="10" stroke-linecap="round"/>
<path d="M104.461 89.1016C105.831 91.1315 137.598 125.089 125.064 139.664C123.9 141.02 121.488 142.475 120.949 142.832C112.868 148.154 107.177 148.598 99.5025 148.935C91.7664 149.276 89.9394 148.125 88.9189 147.172C86.8162 145.203 85.9644 142.011 86.4747 139.303C87.1413 135.781 89.9641 133.879 92.9886 131.845C95.2888 130.291 99.5189 127.941 105.745 127.099" fill="white"/>
<path d="M104.461 89.1016C105.831 91.1315 137.598 125.089 125.064 139.664C123.9 141.02 121.488 142.475 120.949 142.832C112.868 148.154 107.177 148.598 99.5025 148.935C91.7664 149.276 89.9394 148.125 88.9189 147.172C86.8162 145.203 85.9644 142.011 86.4747 139.303C87.1413 135.781 89.9641 133.879 92.9886 131.845C95.2888 130.291 99.5189 127.941 105.745 127.099" stroke="#1250B3" stroke-width="3" stroke-miterlimit="10" stroke-linecap="round"/>
<path d="M104.572 94.8553C104.568 96.2524 103.889 97.5673 102.737 98.3563C93.1821 104.894 81.6357 107.848 72.0356 107.199C63.7853 106.64 54.4856 104.401 46.0047 99.1658C44.7497 98.3932 44.0008 97.0126 44.0049 95.5374L44.009 93.0062C44.0131 91.3831 45.7743 90.3887 47.1816 91.2064C55.3456 95.9442 64.1762 98.0111 72.0521 98.5453C81.2489 99.1658 92.2316 96.4825 101.54 90.5078C102.856 89.6614 104.585 90.59 104.58 92.1515L104.572 94.8553Z" fill="white" stroke="#1250B3" stroke-width="3" stroke-miterlimit="10"/>
<path d="M69.3892 100.69L70.8829 104.08C71.1051 104.585 71.603 104.91 72.1544 104.91H75.6191C76.1664 104.91 76.6602 104.589 76.8865 104.096L78.4255 100.706C78.8411 99.7859 78.1704 98.7422 77.1581 98.7422H70.6607C69.6566 98.7422 68.9818 99.7736 69.3892 100.69Z" fill="#1250B3"/>
<path d="M41.2275 14.1012C50.5108 6.49933 61.7815 1.76562 73.9287 1.76562C85.5821 1.76562 96.3303 6.19937 105.264 13.3616" fill="white"/>
<path d="M41.2275 14.1012C50.5108 6.49933 61.7815 1.76562 73.9287 1.76562C85.5821 1.76562 96.3303 6.19937 105.264 13.3616" stroke="#1250B3" stroke-width="3" stroke-miterlimit="10" stroke-linecap="round"/>
</svg>
