<?xml version="1.0" encoding="UTF-8"?><svg id="Layer_1" xmlns="http://www.w3.org/2000/svg" viewBox="0 0 70 56"><defs><style>.cls-1{fill:#f7f6f1;}.cls-2{fill:#3173de;}</style></defs><path class="cls-2" d="M18.05,40.18c-.16,0-.31,0-.45-.03-4.7-.52-9.6-2.27-14.57-5.21-2.53-1.5-3.66-4.53-2.68-7.22,1.3-3.62,3.91-7.3,7.76-10.95,1.07-1.02,2.78-1.02,3.86-.02,4.11,3.85,7.29,8.55,9.48,14,.81,2.03,1.04,4.09.68,5.95l-.08.34c-.4,1.8-2.08,3.11-4,3.11v.02Z"/><path class="cls-2" d="M47.44,19.1c1.22,0,2.27.88,2.48,2.07,0,0,0,0,.01,0,0,0,0,0,.01,0,1.61,9.93-.07,16.76-6.73,18.88l-6.03,1.16c-1.58.31-3.84,1.48-4.23,3.02l-2.28,9.15c-.32,1.3-1.81,1.92-2.96,1.24l-16.14-9.56c-.77-.45-1.02-1.44-.57-2.21.48-.68,1.34-.98,2.15-.79.38.09.77.18,1.15.25.17.03.33.06.48.09.84.17,1.68.31,2.51.4.25.05.51.05.76.05.9,0,1.75-.18,2.56-.5,2.05-.81,3.65-2.55,4.13-4.76l.05-.21.03-.15c.22-1.1.25-2.23.16-3.37v-.38c-.08-.72-.25-1.45-.45-2.18-.16-.5-.29-1.01-.5-1.51-.04-.07-.06-.14-.09-.22-.3-.74-.62-1.45-.95-2.17-.14-.29-.28-.56-.42-.84h0c-.25-.49-.5-.98-.76-1.47-.16-.31-.34-.61-.51-.92-.26-.44-.53-.89-.79-1.31-.19-.29-.37-.6-.57-.89-.31-.46-.62-.9-.95-1.34-.17-.24-.34-.49-.51-.72-.5-.66-1.01-1.28-1.54-1.91-.16-.18-.33-.37-.5-.55-.4-.46-.81-.9-1.23-1.33-.22-.23-.45-.44-.67-.67-.95-1.02-.47-2.81.7-3.19,4.5-1.47,9.57-2.02,14.18-2.02,1.92,0,3.69,1.01,4.72,2.6l3.26,5.05c.51.78,1.4,1.25,2.34,1.25l7.71-.05Z"/><path class="cls-2" d="M68.52,4.49l-3.36.61c-.37.06-.74-.05-1.01-.32l-2.46-2.44c-.68-.68-1.82-.27-1.96.69l-.49,3.48c-.06.38-.28.7-.6.88l-3.03,1.64c-.83.45-.82,1.69.03,2.12l3.07,1.55c.34.17.57.49.63.87l.59,3.45c.16.95,1.31,1.32,1.97.62l2.38-2.52c.26-.27.63-.4,1-.35l3.39.5c.94.14,1.63-.88,1.19-1.74l-1.6-3.11c-.17-.33-.17-.74-.01-1.08l1.51-3.15c.42-.87-.3-1.87-1.24-1.7h0Z"/><path class="cls-1" d="M33.3,25.01c-.85.44-2.05-.15-2.67-1.31-.62-1.16-.45-2.47.4-2.92.85-.44,2.05.15,2.67,1.31.62,1.16.45,2.47-.4,2.92ZM48.5,23.56c-.79,1.07-2.54.29-2.95-.58-.4-.87.28-2.02,1.5-2.55,1.23-.55,1.91.11,2,1.05.09,1.05.05,1.27-.56,2.08Z"/></svg>