<svg width="45" height="43" viewBox="0 0 45 43" fill="none" xmlns="http://www.w3.org/2000/svg">
<path d="M29.1465 25.107H27.676L27.1547 24.6279C28.3181 23.3396 29.1683 21.8222 29.6446 20.1841C30.1209 18.5461 30.2114 16.8279 29.9098 15.1526C29.0349 10.2197 24.7162 6.28051 19.5039 5.67721C17.6715 5.45624 15.8103 5.63777 14.0628 6.20792C12.3153 6.77807 10.7277 7.72172 9.42168 8.96667C8.11562 10.2116 7.12565 11.7249 6.52751 13.3906C5.92938 15.0564 5.73893 16.8305 5.97076 18.5772C6.60367 23.5455 10.7362 27.6622 15.9112 28.4961C17.6688 28.7837 19.4713 28.6974 21.1897 28.2434C22.9082 27.7894 24.5002 26.9789 25.8517 25.87L26.3543 26.3669V27.7686L34.2657 35.3099C35.0289 36.0374 36.2761 36.0374 37.0393 35.3099C37.8026 34.5824 37.8026 33.3935 37.0393 32.666L29.1465 25.107ZM17.9775 25.107C13.3423 25.107 9.6007 21.5405 9.6007 17.1222C9.6007 12.7039 13.3423 9.13732 17.9775 9.13732C22.6126 9.13732 26.3543 12.7039 26.3543 17.1222C26.3543 21.5405 22.6126 25.107 17.9775 25.107Z" fill="#306794"/>
</svg>
