<svg width="16" height="15" viewBox="0 0 16 15" fill="none" xmlns="http://www.w3.org/2000/svg">
<path id="Vector" d="M0.784314 13.0841C0.429057 13.7502 0.911746 14.5547 1.66667 14.5547H14.3333C15.0883 14.5547 15.5709 13.7502 15.2157 13.0841L8.88235 1.2091C8.50588 0.503217 7.49412 0.503217 7.11765 1.2091L0.784314 13.0841ZM8.72727 11.459C8.72727 11.8607 8.40166 12.1863 8 12.1863C7.59834 12.1863 7.27273 11.8607 7.27273 11.459V11.3346C7.27273 10.9329 7.59834 10.6073 8 10.6073C8.40166 10.6073 8.72727 10.9329 8.72727 11.3346V11.459ZM8.72727 8.3011C8.72727 8.70276 8.40166 9.02837 8 9.02837C7.59834 9.02837 7.27273 8.70276 7.27273 8.3011V6.59775C7.27273 6.19609 7.59834 5.87048 8 5.87048C8.40166 5.87048 8.72727 6.19609 8.72727 6.59775V8.3011Z" fill="#5A5A5A"/>
</svg>
