<svg width="15" height="14" viewBox="0 0 15 14" fill="none" xmlns="http://www.w3.org/2000/svg">
<path d="M8.54405 10.8354H13.5996M0.599609 10.8354H2.04405M2.04405 10.8354C2.04405 11.81 2.85243 12.6001 3.84961 12.6001C4.84679 12.6001 5.65516 11.81 5.65516 10.8354C5.65516 9.86077 4.84679 9.07069 3.84961 9.07069C2.85243 9.07069 2.04405 9.86077 2.04405 10.8354ZM12.8774 6.6001H13.5996M0.599609 6.6001H5.65516M7.82183 2.3648H13.5996M7.82183 2.3648C7.82183 1.39018 7.01346 0.600098 6.01628 0.600098C5.0191 0.600098 4.21072 1.39018 4.21072 2.3648C4.21072 3.33942 5.0191 4.12951 6.01628 4.12951C7.01346 4.12951 7.82183 3.33942 7.82183 2.3648ZM0.599609 2.3648H1.32183M10.3496 8.3648C9.35243 8.3648 8.54405 7.57472 8.54405 6.6001C8.54405 5.62548 9.35243 4.83539 10.3496 4.83539C11.3468 4.83539 12.1552 5.62548 12.1552 6.6001C12.1552 7.57472 11.3468 8.3648 10.3496 8.3648Z" stroke="#7D7D7D" stroke-width="1.2" stroke-linecap="round" stroke-linejoin="round"/>
</svg>
