<svg width="25" height="24" viewBox="0 0 25 24" fill="none" xmlns="http://www.w3.org/2000/svg">
<mask id="mask0_3098_8350" style="mask-type:alpha" maskUnits="userSpaceOnUse" x="0" y="0" width="25" height="24">
<rect x="0.5" width="24" height="24" fill="#D9D9D9"/>
</mask>
<g mask="url(#mask0_3098_8350)">
<path d="M8.5 6.35H8.85V6V4C8.85 3.54356 9.00843 3.16154 9.33499 2.83499C9.66154 2.50843 10.0436 2.35 10.5 2.35H14.5C14.9564 2.35 15.3385 2.50843 15.665 2.83499C15.9916 3.16154 16.15 3.54356 16.15 4V6V6.35H16.5H20.5C20.9564 6.35 21.3385 6.50843 21.665 6.83499C21.9916 7.16154 22.15 7.54356 22.15 8V19C22.15 19.4564 21.9916 19.8385 21.665 20.165C21.3385 20.4916 20.9564 20.65 20.5 20.65H4.5C4.04356 20.65 3.66154 20.4916 3.33499 20.165C3.00843 19.8385 2.85 19.4564 2.85 19V8C2.85 7.54356 3.00843 7.16154 3.33499 6.83499C3.66154 6.50843 4.04356 6.35 4.5 6.35H8.5ZM10.15 6V6.35H10.5H14.5H14.85V6V4V3.65H14.5H10.5H10.15V4V6Z" fill="#C7D9E6" stroke="#1D679C" stroke-width="0.7"/>
</g>
</svg>
